<svg version="1.1" id="Layer_1" xmlns="http://www.w3.org/2000/svg" xmlns:xlink="http://www.w3.org/1999/xlink" x="0px" y="0px"
	 width="100%" viewBox="0 0 992 992" enable-background="new 0 0 992 992" xml:space="preserve">
<path fill="#000000" opacity="1.000000" stroke="none" 
	d="
M600.468628,993.000000 
	C601.507019,989.103027 596.707458,992.024109 596.715576,990.719360 
	C596.263672,987.998779 599.087280,988.205200 598.800964,986.037781 
	C594.870972,983.862671 590.627808,982.250305 585.810730,983.311584 
	C583.527466,983.814575 581.454041,983.582031 579.708069,982.048645 
	C577.364624,979.990479 574.595398,978.981506 571.627014,978.350159 
	C564.494995,976.833252 557.347412,975.568359 550.869263,971.742798 
	C547.878479,969.976562 544.200195,969.782654 540.707336,971.293579 
	C538.522156,972.238953 536.119385,972.498535 533.823364,972.082886 
	C523.519165,970.217468 513.281616,971.215576 503.043091,972.560486 
	C501.899109,972.710693 500.746338,972.985474 499.665649,973.386047 
	C497.479126,974.196472 495.519836,975.558044 496.438171,978.161377 
	C497.380157,980.831787 499.699493,979.689819 501.586884,979.225586 
	C507.610901,977.743774 509.824677,979.091492 510.215210,984.413208 
	C510.355774,986.328918 510.366638,988.194885 508.529877,989.292725 
	C506.649475,990.416809 504.616882,990.151306 502.831604,989.045227 
	C501.724274,988.359253 500.672882,987.415833 499.918732,986.358093 
	C497.638733,983.160217 495.489502,982.482849 492.145782,985.330017 
	C489.667725,987.440002 486.509857,988.900330 483.448181,990.139526 
	C479.371765,991.789368 475.194366,991.476440 471.574036,988.776428 
	C467.557587,985.780945 463.711090,983.645752 458.404999,986.085571 
	C453.487946,988.346619 449.090240,986.237305 446.009186,982.291931 
	C442.904022,978.315735 444.963196,974.494629 447.426147,970.858215 
	C450.623322,966.138000 449.405701,963.080750 444.525146,960.058350 
	C440.239441,957.404480 435.957489,956.619568 431.199097,957.659729 
	C426.734802,958.635681 423.064911,957.242981 419.743866,954.267151 
	C416.262695,951.147827 412.882782,950.518799 408.580353,953.604187 
	C404.088226,956.825562 400.256531,953.266052 397.174133,950.404846 
	C390.557343,944.262817 390.647369,944.091797 382.770935,948.568054 
	C376.269135,952.263245 370.981537,950.422485 367.922577,943.398926 
	C365.748627,938.407410 362.456360,937.649414 358.353973,941.195801 
	C351.549652,947.077942 347.190063,946.876770 342.289673,940.830933 
	C340.166809,938.211914 340.576599,935.503357 341.239349,932.791748 
	C341.833710,930.359802 341.308868,928.611572 339.476440,927.018127 
	C337.724365,925.494690 335.835480,924.363342 333.619781,925.668274 
	C331.234467,927.073120 330.948792,929.339172 331.975647,931.777771 
	C333.494659,935.385132 333.501740,938.636047 329.812988,940.967163 
	C326.264709,943.209595 321.281006,942.531860 318.387238,939.442627 
	C315.553558,936.417603 315.741730,933.037048 317.752075,929.784424 
	C324.211426,919.333557 321.890900,918.846436 312.537018,913.121826 
	C310.961975,912.157959 309.536072,912.143921 307.809967,912.673645 
	C300.936371,914.782898 295.137177,912.479126 291.262573,906.241455 
	C290.650421,905.256042 290.217133,904.142456 289.512421,903.234619 
	C287.425781,900.547119 285.296448,899.348999 283.085236,903.212891 
	C282.347382,904.502258 281.391266,905.710449 280.347778,906.771729 
	C278.303375,908.851074 275.819489,909.338684 272.990234,908.561523 
	C270.058319,907.756348 268.525604,905.836975 268.032776,902.940491 
	C267.283203,898.535034 268.399811,894.422607 271.387390,891.353760 
	C274.639496,888.013184 274.858826,885.340454 271.497498,882.160400 
	C270.559998,881.273438 270.066376,879.927307 269.325104,878.821289 
	C266.627319,874.796448 263.260101,874.059631 259.243073,876.592407 
	C253.630905,880.131104 242.813004,877.545227 239.788483,871.820923 
	C238.323914,869.049011 240.853897,866.412598 240.468628,862.785645 
	C235.981094,865.012573 234.316986,869.405457 231.344727,872.354553 
	C228.039490,875.634033 224.233566,876.740845 220.884705,874.154785 
	C216.771011,870.978210 215.949936,865.177734 218.748459,861.539429 
	C220.847763,858.810181 223.817947,857.282227 226.293686,855.100342 
	C229.759598,852.045898 229.473297,850.316162 225.525269,848.159424 
	C224.378387,847.532898 223.275558,846.727722 222.354187,845.803467 
	C218.598816,842.036072 214.567474,840.752991 209.237473,842.723450 
	C202.477966,845.222290 197.722046,844.802612 194.193893,837.652527 
	C192.557495,834.336243 186.096085,834.760193 182.560745,838.352051 
	C179.723907,841.234314 176.464172,842.203735 173.114761,840.228088 
	C169.458878,838.071533 167.558289,834.728943 168.620621,830.064392 
	C169.281570,827.162354 171.367386,826.501343 173.601120,825.865662 
	C177.447952,824.770874 178.942245,822.110840 177.464172,818.653076 
	C175.702469,814.531860 172.885391,811.026123 168.682434,808.890503 
	C166.017151,807.536255 163.403534,807.479919 161.295822,809.581543 
	C156.972977,813.891724 153.208359,812.651367 149.329910,808.983948 
	C146.846878,806.635925 145.157898,798.360046 147.038559,795.546936 
	C149.235123,792.261414 150.487915,789.026306 147.789291,785.494934 
	C143.771332,780.237183 140.122375,778.963867 134.464523,780.700500 
	C127.610168,782.804382 125.855438,782.212463 121.575745,776.404480 
	C120.390099,774.795410 119.066902,773.281189 117.962975,771.619629 
	C114.958229,767.097229 115.693520,763.794739 120.232956,760.945007 
	C124.176842,758.469299 125.620995,754.744812 123.994270,751.244812 
	C122.225449,747.439148 117.461304,745.209900 113.538597,746.682556 
	C110.759277,747.725952 107.844559,748.891724 105.733589,746.277466 
	C103.748528,743.819031 104.756248,740.926758 105.483093,737.831848 
	C107.791573,728.002380 112.713974,718.955566 113.917740,708.835999 
	C114.419861,704.614868 113.917702,700.503418 112.387955,696.554138 
	C110.862373,692.615479 111.361252,689.124695 114.078613,685.835693 
	C120.076782,678.575806 122.828247,670.627747 119.332031,661.251892 
	C118.392937,658.733521 118.516617,655.859131 119.571106,653.381409 
	C122.950386,645.441345 123.300201,636.829529 125.372871,628.608887 
	C126.327133,624.824097 125.340988,621.283325 124.089005,617.854431 
	C121.488045,610.731018 120.274467,603.430847 120.013084,595.857361 
	C119.708870,587.043091 114.768967,581.078674 106.152901,578.507324 
	C103.282394,577.650696 100.734100,576.312012 99.822495,573.376831 
	C97.656654,566.403198 94.519295,559.690613 94.051979,552.239319 
	C93.694382,546.537659 93.808838,540.941284 95.961670,535.508484 
	C97.657211,531.229736 97.384392,527.177979 94.562897,523.213074 
	C91.149895,518.416870 91.070244,512.505005 90.104355,506.968262 
	C88.874588,499.918915 88.214531,492.779907 88.024376,485.611633 
	C88.002289,484.779358 88.192291,483.823517 87.855087,483.135010 
	C81.085022,469.312195 87.784973,456.694672 91.807053,444.084320 
	C94.086815,436.936707 95.930992,429.908661 94.900047,422.572357 
	C93.108475,409.823425 93.052223,396.743317 85.831215,385.073425 
	C82.414406,379.551544 82.050148,373.203308 86.963509,366.998108 
	C91.620766,361.116333 93.120155,353.337769 94.800110,346.134491 
	C96.705101,337.966309 98.302505,329.966797 103.506729,323.044281 
	C106.234642,319.415680 107.720490,315.096893 106.600159,310.317780 
	C105.883919,307.262421 106.435562,304.211365 107.796173,301.549988 
	C110.708946,295.852539 113.907272,290.470764 115.586174,284.044403 
	C116.869667,279.131592 122.503464,277.139130 127.499985,276.085052 
	C132.540527,275.021729 137.653275,274.230499 142.769928,273.615997 
	C149.117020,272.853668 154.710114,276.126831 160.671005,277.441895 
	C167.587646,278.967804 174.368134,280.632355 180.945953,276.370758 
	C183.081940,274.986877 184.811066,273.303284 186.253128,271.185638 
	C188.101685,268.471039 189.744873,265.455353 193.159882,264.277863 
	C194.045547,263.972473 194.774261,263.300293 194.619919,262.479523 
	C193.497467,256.510284 197.359665,251.385361 197.198868,245.400238 
	C197.041428,239.540359 199.909714,234.129028 205.296143,230.966171 
	C207.717133,229.544571 207.649719,228.011398 206.780380,226.026978 
	C205.915070,224.051758 204.712646,222.229797 204.898911,219.912323 
	C205.088120,217.558456 205.908890,215.565643 208.312180,214.936600 
	C210.464203,214.373337 212.191055,215.598343 213.551605,217.169388 
	C215.417694,219.324127 213.700668,220.837845 212.441635,222.356369 
	C211.305725,223.726379 210.083450,225.024811 209.178421,226.699799 
	C222.036804,221.628143 232.575562,213.381302 241.643234,202.981613 
	C241.038696,201.432999 239.439896,201.774048 238.285538,201.368851 
	C234.407776,200.007721 233.038437,197.270218 234.356079,193.211655 
	C235.558670,189.507401 239.159790,187.615555 242.679718,189.551559 
	C249.406586,193.251404 256.269775,194.178757 263.666443,192.266418 
	C266.007416,191.661163 268.533905,192.097504 270.164856,193.969452 
	C272.626923,196.795364 275.159149,196.559540 278.184479,195.164627 
	C279.661285,194.483688 281.424194,193.983536 283.020447,194.072067 
	C294.256134,194.695221 300.112366,187.540771 304.912689,178.999557 
	C306.452209,176.260315 308.420197,174.394394 311.134125,172.819397 
	C318.868988,168.330597 326.407928,163.496353 333.038086,157.423691 
	C334.749603,155.856094 336.411530,154.151794 337.732788,152.256866 
	C341.097076,147.431656 345.506317,145.090515 351.407410,145.894577 
	C355.762421,146.487991 359.148163,144.999908 361.962646,141.631866 
	C363.878387,139.339355 366.297668,137.471893 368.258301,135.211807 
	C373.232391,129.477982 378.915283,127.988693 386.808899,128.425018 
	C401.748352,129.250839 416.676697,131.983276 431.755463,130.093460 
	C436.136780,129.544357 439.741058,128.037033 442.730652,124.858284 
	C450.252655,116.860329 459.377655,113.635765 470.263031,115.651688 
	C471.068085,115.800781 471.968689,115.880974 472.743408,115.679680 
	C483.851959,112.793251 495.303192,115.374763 506.490387,113.514000 
	C511.064575,112.753181 515.116943,115.921227 519.656982,115.996902 
	C533.333008,116.224846 546.989929,115.996567 560.500916,113.584419 
	C564.389404,112.890198 567.985596,112.989876 571.703369,114.614723 
	C576.437988,116.683968 581.453613,118.029411 586.625549,118.600121 
	C594.932556,119.516785 602.919556,121.232880 610.623108,124.868286 
	C621.593506,130.045349 633.799194,130.655182 645.526367,133.042130 
	C656.584717,135.292984 667.961548,136.436035 678.296326,141.501892 
	C680.233276,142.451355 682.252258,143.388290 683.903381,144.735504 
	C687.874023,147.975433 692.379028,149.435974 697.376282,148.996094 
	C702.641357,148.532654 706.746460,150.546555 710.433228,154.020950 
	C714.650146,157.994858 719.635986,160.556213 725.320251,161.737930 
	C726.296692,161.940933 727.448120,161.911072 728.212463,162.435287 
	C741.221252,171.357010 756.907043,176.744766 765.852234,191.060776 
	C767.542664,193.766037 770.210327,195.223190 773.403137,196.360992 
	C782.000122,199.424652 790.730652,202.461777 797.170959,209.546860 
	C798.154480,210.628876 799.461548,211.489792 800.756348,212.204193 
	C809.619263,217.094330 816.559387,224.075027 822.596130,232.062683 
	C823.884277,233.767075 824.150574,235.726501 824.004944,237.756668 
	C823.588379,243.561691 824.774475,249.417664 823.394897,255.201813 
	C823.175903,256.120056 823.242004,257.308685 823.648193,258.142365 
	C827.729004,266.517975 829.918701,275.732391 834.840820,283.713593 
	C837.143188,287.446716 840.311890,290.377991 844.401917,292.249969 
	C846.515442,293.217346 848.545898,294.398193 850.520081,295.632660 
	C859.846191,301.464478 861.175781,304.412354 858.693909,315.000214 
	C857.443237,320.335785 858.179443,325.278778 860.664490,329.998291 
	C863.370056,335.136658 863.043213,340.113800 860.862976,345.370453 
	C856.230652,356.539276 854.817322,368.197601 856.551941,380.172699 
	C857.645081,387.719269 856.153809,395.127502 855.480408,402.559692 
	C855.120789,406.529327 855.221252,410.168549 857.264038,413.642975 
	C860.051331,418.383484 861.017029,423.568390 860.920227,428.999725 
	C860.872314,431.689667 860.854675,434.456512 862.405212,436.745972 
	C869.676392,447.482849 872.361206,459.873810 875.520020,472.131866 
	C878.520935,483.777130 881.580017,495.279388 879.124695,507.570984 
	C878.021729,513.092834 878.719788,518.888306 880.690918,524.338684 
	C882.443848,529.185303 882.509827,534.143311 881.653137,539.137146 
	C880.712158,544.622803 881.207642,550.026184 881.728516,555.538086 
	C882.830933,567.205139 885.678833,578.885498 882.212463,590.663757 
	C881.286133,593.811462 882.466858,596.921387 883.491150,599.940796 
	C885.328125,605.355530 886.436829,610.794739 885.394409,616.612976 
	C884.522461,621.479187 885.601990,626.268250 887.553101,630.770996 
	C893.341980,644.131165 896.408691,658.313965 900.130371,672.290771 
	C901.851868,678.755981 904.530640,684.100525 911.411377,686.366028 
	C915.181519,687.607361 916.117188,690.762817 916.052795,694.363220 
	C915.990723,697.835327 914.787048,700.707825 911.186462,701.660583 
	C906.112854,703.003052 905.944336,705.563232 908.199402,709.781128 
	C911.065796,715.142578 910.359558,719.928772 905.751343,723.207336 
	C900.380249,727.028748 897.652161,732.387634 895.245605,738.052917 
	C893.012756,743.309509 889.577698,746.718994 883.913879,748.342896 
	C878.150146,749.995361 874.200867,753.931396 872.710266,760.012573 
	C871.277588,765.857666 869.452637,771.376221 864.995911,775.953186 
	C861.825317,779.209412 860.828674,783.840149 860.885681,788.505676 
	C860.925171,791.734558 860.474121,794.877991 858.352112,797.462219 
	C854.955811,801.598389 853.254761,806.398987 852.589783,811.614624 
	C851.725708,818.392029 846.898926,822.372070 842.079773,826.193542 
	C835.682007,831.266663 834.489380,835.543396 838.472900,843.124878 
	C829.041870,846.572998 827.762329,855.065796 826.246948,863.461731 
	C825.156799,869.502014 821.735657,873.619751 816.001343,875.999512 
	C805.702637,880.273376 798.913696,887.570251 795.876770,898.584045 
	C794.115723,904.971069 791.411682,911.143738 788.663147,917.200073 
	C785.894104,923.301758 779.430420,925.218323 773.975098,926.503296 
	C765.553955,928.486816 760.225220,932.801208 756.202820,940.197754 
	C753.105957,945.892456 746.321106,945.923279 740.854675,947.375916 
	C733.012878,949.459717 732.914978,949.091431 732.964783,957.427124 
	C732.996948,962.821594 729.986206,967.113586 724.771667,969.357544 
	C719.425415,971.658264 715.119934,974.447021 714.154663,981.259094 
	C713.656860,984.772339 711.436523,988.805481 707.067261,990.237854 
	C706.036438,990.575806 704.513428,990.880127 705.848389,992.804993 
	C670.979126,993.000000 635.958191,993.000000 600.468628,993.000000 
M755.087952,500.509979 
	C752.462769,495.327667 749.979370,490.066620 747.161377,484.991425 
	C745.360107,481.747375 745.638489,478.851624 746.882263,475.495544 
	C749.989624,467.110901 753.450806,458.756256 755.439026,450.084442 
	C757.726318,440.108398 759.961670,430.094421 761.444458,419.889832 
	C763.376770,406.590912 765.384949,393.307068 766.885925,379.950256 
	C767.011169,378.835663 767.190491,377.574738 765.791504,376.844391 
	C763.255737,377.001068 761.823608,378.999573 760.073364,380.455994 
	C742.915283,394.733276 725.550964,408.661255 704.097290,416.251373 
	C699.224304,417.975342 694.962891,418.405975 690.761414,414.445526 
	C686.287903,410.228668 681.532776,406.245911 676.552612,402.641724 
	C644.807922,379.667786 609.806091,363.801239 571.496094,355.506500 
	C566.794922,354.488617 562.217346,352.917328 557.429321,352.296387 
	C546.888428,350.929443 536.226196,350.292938 525.762329,348.695465 
	C503.332001,345.271027 481.171082,348.161804 459.072906,350.649536 
	C445.148804,352.217041 431.352692,355.591370 417.884521,359.868134 
	C401.759888,364.988373 385.941467,370.935913 370.965546,378.794952 
	C349.959106,389.818726 330.575714,403.263702 313.336243,419.648041 
	C310.859283,422.002136 308.432281,422.950226 304.860809,422.471924 
	C298.121582,421.569366 292.111816,418.763306 286.166077,415.955963 
	C267.461029,407.124115 250.251785,395.808014 233.711929,383.440247 
	C232.635284,382.635193 231.671448,381.086670 229.667084,382.201935 
	C229.804123,383.141815 229.795975,384.150604 230.105621,385.049957 
	C234.795746,398.672363 239.650421,412.239349 244.219437,425.901947 
	C250.379684,444.322693 257.443970,462.360077 266.203461,479.710419 
	C267.084808,481.456116 267.359558,483.129883 266.451385,484.951904 
	C263.266602,491.341461 260.769165,497.985443 258.599457,504.798157 
	C253.989761,519.272400 250.921036,534.042969 250.197998,549.194275 
	C249.323639,567.516663 250.414856,585.714355 254.137573,603.776489 
	C257.234680,618.803284 262.049591,633.191711 268.742065,646.910278 
	C280.264191,670.528931 296.839203,689.936279 318.273773,705.239319 
	C333.535645,716.135254 350.204712,724.335205 367.783203,730.448547 
	C381.825409,735.332031 396.181030,739.306824 411.049957,741.422974 
	C423.218658,743.154846 435.263397,745.542969 447.614380,745.911255 
	C463.757263,746.392578 479.892731,747.451782 496.026062,745.882629 
	C499.837036,745.511963 502.725159,746.870178 505.377441,749.534729 
	C515.044067,759.245300 519.219727,771.538513 522.290466,784.439148 
	C524.549622,793.930115 525.650757,803.737427 529.611755,812.775391 
	C531.873413,817.936035 535.583740,819.107117 540.569214,816.535767 
	C545.762512,813.857239 548.499878,809.098511 550.908813,804.138611 
	C555.711853,794.249451 558.421753,783.683716 561.186279,773.089233 
	C562.322571,768.734497 562.793213,764.270569 564.103821,759.992676 
	C564.588135,758.411865 565.441650,756.709961 567.420349,756.724426 
	C569.022705,756.736267 569.499939,758.239868 569.760803,759.565918 
	C571.977173,770.832397 576.380615,781.398193 580.319336,792.096008 
	C583.013000,799.412109 586.107971,806.621704 591.318726,812.619934 
	C597.348267,819.560730 604.404053,819.670044 610.633789,813.027893 
	C615.149109,808.213684 618.023499,802.364441 620.588257,796.435303 
	C624.559082,787.256042 626.675903,777.528809 628.009155,767.629517 
	C628.224121,766.033264 628.247314,764.190369 630.440186,763.881226 
	C631.886658,764.294617 631.919312,765.559509 632.351868,766.622803 
	C635.851929,775.225098 638.712646,784.163513 644.191650,791.797852 
	C651.550293,802.051025 660.787476,802.127075 668.023560,791.782898 
	C677.588623,778.109314 681.731628,762.405579 683.542542,746.089600 
	C684.422913,738.158081 684.229919,730.118591 683.303040,722.138550 
	C682.968384,719.256958 683.642517,716.984558 686.891052,715.918457 
	C702.390320,710.831421 717.310303,704.451172 731.168579,695.738220 
	C761.464722,676.690308 775.840393,648.594177 777.843201,613.519714 
	C778.940918,594.295776 776.525574,575.309998 772.734619,556.557068 
	C770.578979,545.893860 767.691956,535.352112 764.280884,524.943420 
	C761.639404,516.883240 757.874512,509.293182 755.087952,500.509979 
M505.807404,203.257538 
	C498.880066,219.917389 491.947815,236.575195 485.033783,253.240585 
	C484.416260,254.729141 484.410706,256.797119 482.235077,256.886322 
	C480.074341,256.974884 479.223389,255.263962 478.338989,253.563416 
	C472.441010,242.222931 466.633942,230.829987 460.452972,219.644363 
	C457.966888,215.145248 456.588348,209.919739 452.798706,206.069366 
	C451.471375,207.277939 451.626953,208.475372 451.570312,209.628189 
	C450.900848,223.257629 450.091827,236.881683 449.577057,250.516891 
	C448.836060,270.146149 446.591431,289.707092 446.972412,309.387482 
	C447.077179,314.800812 447.824860,315.392548 453.189270,313.802551 
	C461.462372,311.350433 469.955994,309.825012 478.478088,308.773315 
	C502.204620,305.845245 525.532593,309.277832 548.742615,313.885864 
	C555.526672,315.232727 555.800598,315.104218 555.729919,308.047729 
	C555.479675,283.059357 555.184509,258.071350 554.863770,233.083786 
	C554.841614,231.356750 555.305298,229.353577 552.856873,227.941269 
	C541.867249,237.725204 533.831360,250.511307 521.712952,261.156464 
	C516.864136,237.461685 516.485352,214.382004 512.041382,190.687607 
	C508.798065,194.901718 507.734161,198.872482 505.807404,203.257538 
M678.875488,334.392334 
	C677.738586,336.236755 676.142517,338.268127 678.408936,340.113281 
	C679.925781,341.348175 681.732544,340.305023 682.727844,338.890167 
	C685.401733,335.088898 687.997192,331.220825 690.385132,327.236267 
	C691.220459,325.842468 691.491943,323.833862 689.789429,322.734802 
	C688.023560,321.594879 686.514465,322.819519 685.543884,324.204712 
	C683.354736,327.329132 681.357971,330.588318 678.875488,334.392334 
M311.942780,329.564728 
	C312.616364,330.504852 313.194702,331.536011 313.985626,332.364075 
	C315.208008,333.643829 316.444611,335.437622 318.534149,333.740875 
	C320.290070,332.315094 319.373199,330.684967 318.467621,329.301361 
	C316.202759,325.840790 313.876648,322.415466 311.439117,319.075256 
	C310.564423,317.876678 309.266144,316.730774 307.646423,317.940826 
	C306.284241,318.958435 306.023224,320.551239 306.861694,321.963135 
	C308.295013,324.376648 309.963715,326.650391 311.942780,329.564728 
M474.373291,968.208496 
	C469.673279,968.161621 467.738159,973.075195 462.975433,973.568237 
	C467.262024,977.262756 469.840942,977.729675 474.413971,976.008850 
	C476.243225,975.320435 478.692719,974.885742 478.984009,972.696777 
	C479.311737,970.233521 477.119019,969.125488 474.373291,968.208496 
M388.123993,286.183411 
	C387.536865,284.052124 386.895020,281.636841 383.972290,282.792480 
	C382.062164,283.547760 382.153290,285.627594 383.324066,286.970245 
	C384.804688,288.668274 384.188171,292.732758 387.583374,292.026184 
	C390.865051,291.343170 389.077698,288.760010 388.123993,286.183411 
M630.731384,291.276947 
	C630.038086,289.742157 628.693970,289.088196 627.813354,290.608978 
	C626.559692,292.774078 627.254883,294.823090 629.475098,296.196320 
	C631.098938,294.922211 630.903992,293.414062 630.731384,291.276947 
z"/>
<path fill="#000000" opacity="1.000000" stroke="none" 
	d="
M339.454102,993.000000 
	C340.399719,991.097778 339.718109,987.388855 343.321320,987.450256 
	C346.325928,987.501404 347.790344,989.764282 348.867584,992.678345 
	C345.969391,993.000000 342.938812,993.000000 339.454102,993.000000 
z"/>
<path fill="#000000" opacity="1.000000" stroke="none" 
	d="
M159.477234,972.382202 
	C151.659531,972.568970 147.673798,970.009949 147.544968,965.040283 
	C147.434311,960.771362 152.554626,956.087097 158.251740,955.679871 
	C161.332886,955.459656 164.016373,955.803467 166.467133,958.921448 
	C169.024185,962.174927 173.629440,962.578247 177.673279,961.089417 
	C184.684937,958.508057 188.213394,959.190857 191.594376,964.342224 
	C193.284210,966.916870 193.737076,969.610657 191.953552,972.295349 
	C190.274887,974.822021 188.180740,975.789978 184.802795,975.496826 
	C180.016571,975.081360 176.629211,972.866638 173.786316,969.469604 
	C171.733017,967.016113 169.741989,966.853210 167.392181,968.830811 
	C165.199203,970.676514 162.906830,972.305359 159.477234,972.382202 
z"/>
<path fill="#000000" opacity="1.000000" stroke="none" 
	d="
M164.593796,862.504028 
	C161.986343,857.651611 165.374634,854.999634 167.757828,852.141785 
	C169.703018,849.809143 172.419632,850.379089 174.711945,851.316650 
	C178.034790,852.675781 179.886322,855.520508 180.160080,859.070129 
	C180.456757,862.916687 180.490036,866.683960 176.453476,869.193115 
	C173.776779,870.856995 173.592560,873.580261 175.252167,876.219604 
	C176.838715,878.742798 177.210312,881.478699 177.139496,884.361816 
	C176.951141,892.030334 172.063492,895.527222 164.754501,893.199646 
	C158.970428,891.357727 157.330170,886.174988 161.059250,881.494751 
	C161.368637,881.106445 161.762589,880.786438 162.107529,880.425415 
	C169.679291,872.499329 169.737717,872.103027 164.593796,862.504028 
z"/>
<path fill="#000000" opacity="1.000000" stroke="none" 
	d="
M143.728195,836.314087 
	C141.126175,834.027527 140.312164,831.026367 138.684540,828.540527 
	C137.677277,827.002197 136.531265,825.374817 134.481903,825.400635 
	C132.238815,825.429016 131.703247,827.342712 131.006470,829.083069 
	C129.107254,833.826660 125.683334,834.855957 120.046669,832.494385 
	C114.943939,830.356506 113.561264,826.929626 115.760231,821.870972 
	C117.625374,817.580383 122.309189,815.789001 126.510933,817.820801 
	C127.394821,818.248291 128.220520,818.853760 128.965714,819.500854 
	C133.167923,823.150330 137.592453,824.463135 143.117752,822.201660 
	C146.724319,820.725464 150.581711,820.975159 153.718674,824.116028 
	C156.867966,827.269226 157.919464,832.195312 155.825485,834.881470 
	C153.194656,838.256348 147.975830,838.995056 143.728195,836.314087 
z"/>
<path fill="#000000" opacity="1.000000" stroke="none" 
	d="
M145.357483,914.339478 
	C140.031372,918.911865 136.264160,918.925293 132.177933,914.622498 
	C129.886185,912.209290 127.754417,909.177246 129.607925,906.191589 
	C131.839035,902.597656 135.173798,898.601074 139.572861,898.694702 
	C143.921005,898.787292 145.785019,903.771057 148.055191,907.029846 
	C149.845291,909.599670 148.657135,912.489441 145.357483,914.339478 
z"/>
<path fill="#000000" opacity="1.000000" stroke="none" 
	d="
M204.400391,886.574707 
	C205.405365,889.907898 202.682068,897.047729 199.681259,898.115417 
	C195.387726,899.643066 191.462387,897.566223 188.272018,894.983704 
	C184.125900,891.627625 184.451309,888.281189 188.642914,883.057434 
	C190.974243,880.152039 197.345718,880.033508 201.259125,882.973633 
	C202.419739,883.845642 203.256439,885.148804 204.400391,886.574707 
z"/>
<path fill="#000000" opacity="1.000000" stroke="none" 
	d="
M154.936646,945.081055 
	C150.608521,941.262146 150.418961,939.123047 153.759308,934.834839 
	C157.004761,930.668457 162.188675,929.896484 166.434784,932.947266 
	C172.895859,937.589417 172.222031,946.009399 164.841110,949.086304 
	C160.915695,950.722656 158.151199,947.324097 154.936646,945.081055 
z"/>
<path fill="#000000" opacity="1.000000" stroke="none" 
	d="
M196.907227,939.671509 
	C197.304199,948.360657 193.178818,951.772705 184.941452,950.046753 
	C181.163925,949.255188 178.603241,942.583008 180.108185,937.453064 
	C181.327942,933.295105 186.819748,929.881714 190.198608,931.538879 
	C193.395569,933.106934 194.292130,936.946228 196.907227,939.671509 
z"/>
<path fill="#000000" opacity="1.000000" stroke="none" 
	d="
M381.641357,969.327332 
	C376.671997,978.024353 374.201477,978.078552 360.914185,969.921875 
	C362.517548,967.495422 363.858429,964.817871 365.800232,962.688416 
	C368.343231,959.899780 371.747955,957.776794 375.560211,959.513733 
	C379.325745,961.229309 383.078644,963.601929 381.641357,969.327332 
z"/>
<path fill="#000000" opacity="1.000000" stroke="none" 
	d="
M345.247498,972.933472 
	C343.631714,972.439270 342.269409,972.158569 341.227142,971.423828 
	C336.632629,968.184814 335.101532,963.776550 337.470459,961.059143 
	C342.035309,955.822693 348.273956,954.952271 352.049286,959.628723 
	C353.914551,961.939209 358.445251,962.905396 356.981689,967.385864 
	C355.473267,972.003601 351.272156,971.836609 347.612396,972.615295 
	C346.964172,972.753235 346.303284,972.831970 345.247498,972.933472 
z"/>
<path fill="#000000" opacity="1.000000" stroke="none" 
	d="
M182.797791,917.220581 
	C181.811371,914.132141 182.895844,912.362793 185.395355,911.264526 
	C186.456970,910.798096 187.757263,910.558594 188.522919,909.790833 
	C191.492706,906.812927 194.709747,906.386169 197.763153,909.174744 
	C201.040680,912.167908 200.774673,917.809265 198.149780,921.278259 
	C192.337784,928.958984 186.966904,927.433594 182.797791,917.220581 
z"/>
<path fill="#000000" opacity="1.000000" stroke="none" 
	d="
M155.678116,914.505493 
	C154.469101,910.110657 158.062958,905.255859 163.547729,902.926453 
	C167.091171,901.421570 168.951477,902.753479 170.751877,905.839844 
	C175.063934,913.231689 175.002945,914.649963 169.057297,918.475464 
	C164.327942,921.518372 159.340897,920.129761 155.678116,914.505493 
z"/>
<path fill="#000000" opacity="1.000000" stroke="none" 
	d="
M140.857361,943.275146 
	C136.156662,943.931091 132.311752,942.198853 128.598221,940.476624 
	C124.806557,938.718140 124.213707,935.061157 126.770058,931.835022 
	C131.187820,926.259766 140.656631,927.224304 143.712173,933.580261 
	C144.426193,935.065491 145.071487,936.589111 145.656219,938.130066 
	C147.141937,942.045410 145.745010,943.661621 140.857361,943.275146 
z"/>
<path fill="#000000" opacity="1.000000" stroke="none" 
	d="
M138.899643,854.063843 
	C139.212555,850.108398 141.863647,847.446899 142.388809,843.862610 
	C142.770096,841.260254 145.429764,841.793152 146.589478,843.343140 
	C148.760941,846.245300 151.717911,848.508667 153.230103,851.967712 
	C155.383987,856.894653 154.619125,859.924561 150.294876,862.111450 
	C146.543533,864.008545 142.693268,862.649902 140.188217,858.650024 
	C139.369858,857.343262 138.712280,856.053528 138.899643,854.063843 
z"/>
<path fill="#000000" opacity="1.000000" stroke="none" 
	d="
M134.178192,885.916870 
	C130.270096,882.582886 131.564209,880.052612 134.780884,877.705872 
	C140.348999,873.643799 146.889740,874.059875 149.398941,878.536621 
	C151.916885,883.028870 150.084747,885.980408 146.347031,888.584656 
	C141.774811,891.770203 139.304276,891.762146 135.924774,888.159058 
	C135.360016,887.557007 134.904022,886.852844 134.178192,885.916870 
z"/>
<path fill="#000000" opacity="1.000000" stroke="none" 
	d="
M213.405914,964.710205 
	C214.658737,965.791077 215.690704,966.628235 216.542557,967.620117 
	C220.851715,972.637878 220.922256,975.148987 216.934250,978.450867 
	C213.567673,981.238220 207.102036,980.731628 204.364761,977.045898 
	C202.567261,974.625549 199.944870,971.390503 202.439651,968.577209 
	C204.994263,965.696594 208.192505,962.223206 213.405914,964.710205 
z"/>
<path fill="#000000" opacity="1.000000" stroke="none" 
	d="
M123.485931,874.670715 
	C126.684341,882.324402 125.708145,884.830261 119.203362,886.598755 
	C114.847252,887.783081 108.298218,883.549316 107.307739,878.912659 
	C106.851410,876.776489 107.195732,874.703064 109.093460,873.584351 
	C112.292793,871.698364 115.788681,870.367249 119.544823,871.859375 
	C120.895546,872.395996 122.009995,873.527405 123.485931,874.670715 
z"/>
<path fill="#000000" opacity="1.000000" stroke="none" 
	d="
M322.095734,953.853210 
	C326.605560,954.883240 328.526642,958.420349 330.810944,961.377563 
	C332.576752,963.663391 331.675934,965.752136 329.156219,967.086304 
	C325.327240,969.113892 321.266266,968.633179 317.540497,967.304382 
	C314.308167,966.151611 311.149597,964.322083 312.545959,959.579956 
	C313.951599,954.806702 316.129425,953.220459 322.095734,953.853210 
z"/>
<path fill="#000000" opacity="1.000000" stroke="none" 
	d="
M240.841141,941.970825 
	C247.089386,943.518494 249.518600,946.349792 248.696533,950.650818 
	C247.880890,954.918274 243.861801,957.628174 239.403305,956.916870 
	C234.142838,956.077759 231.175430,952.482056 231.819504,947.646057 
	C232.508011,942.476257 236.684784,942.531616 240.841141,941.970825 
z"/>
<path fill="#000000" opacity="1.000000" stroke="none" 
	d="
M129.050079,967.299927 
	C125.227119,966.184387 121.585945,964.779297 122.792526,960.375061 
	C124.124687,955.512390 130.827286,952.112366 134.608704,953.662537 
	C138.876694,955.412354 141.648361,960.439758 140.141510,964.047424 
	C137.938553,969.321594 133.487762,967.762268 129.050079,967.299927 
z"/>
<path fill="#000000" opacity="1.000000" stroke="none" 
	d="
M206.570450,942.485352 
	C212.901810,937.041626 218.432739,937.819214 221.919266,944.115356 
	C223.191742,946.413147 222.701965,948.195923 221.337631,950.032471 
	C219.083221,953.067383 212.558701,955.242615 209.713867,953.485229 
	C205.696075,951.003052 204.886078,947.151367 206.570450,942.485352 
z"/>
<path fill="#000000" opacity="1.000000" stroke="none" 
	d="
M191.280548,866.328613 
	C191.342468,857.445618 194.602509,854.573181 202.006134,856.227722 
	C205.944489,857.107788 207.322632,859.919983 207.672989,863.414490 
	C208.016953,866.845398 205.584961,868.412415 202.834366,869.468384 
	C197.554947,871.495300 193.603836,870.499512 191.280548,866.328613 
z"/>
<path fill="#000000" opacity="1.000000" stroke="none" 
	d="
M220.042023,884.759521 
	C225.655502,885.759338 227.616821,889.027649 227.136963,895.476135 
	C226.903915,898.607910 225.620911,900.506653 222.327560,900.666016 
	C218.093628,900.870911 212.305771,896.633423 211.788834,892.960083 
	C211.314545,889.589661 214.843002,885.901672 220.042023,884.759521 
z"/>
<path fill="#000000" opacity="1.000000" stroke="none" 
	d="
M391.888733,970.210083 
	C393.126770,965.985596 395.822021,963.787354 399.722260,964.399780 
	C404.120667,965.090271 406.503937,968.331726 407.134216,972.673279 
	C407.586975,975.791870 406.289215,978.194092 403.457794,979.632080 
	C400.617676,981.074585 398.038422,980.687561 395.749786,978.382019 
	C393.589508,976.205811 391.867493,973.841980 391.888733,970.210083 
z"/>
<path fill="#000000" opacity="1.000000" stroke="none" 
	d="
M124.163635,860.231812 
	C118.695145,862.053528 115.685120,858.324341 112.822449,855.447876 
	C110.407074,853.020996 113.156975,847.501404 117.673485,844.880005 
	C120.983170,842.959045 123.493073,844.525391 125.181366,847.318909 
	C127.779030,851.617004 128.253937,855.995422 124.163635,860.231812 
z"/>
<path fill="#000000" opacity="1.000000" stroke="none" 
	d="
M119.853661,796.858643 
	C120.637665,794.796448 121.018059,792.900818 122.032494,791.447815 
	C123.767891,788.962036 126.056740,788.554321 128.262817,791.022034 
	C129.591797,792.508606 130.929428,794.030945 131.980591,795.713684 
	C134.333511,799.480408 133.507904,802.548096 129.802643,805.078613 
	C127.000145,806.992737 121.801643,807.073792 119.805412,804.812073 
	C117.634949,802.352966 119.256897,799.761658 119.853661,796.858643 
z"/>
<path fill="#000000" opacity="1.000000" stroke="none" 
	d="
M210.145569,168.626953 
	C208.666428,165.257156 207.868423,162.083832 211.209106,159.935745 
	C214.170303,158.031693 217.380264,156.840332 220.906189,159.153488 
	C223.653351,160.955795 224.455673,163.316208 223.826950,166.369965 
	C222.969879,170.532806 219.582520,172.479919 215.243652,171.290268 
	C213.483582,170.807678 211.783020,170.190277 210.145569,168.626953 
z"/>
<path fill="#000000" opacity="1.000000" stroke="none" 
	d="
M291.496338,934.529785 
	C289.144287,930.961182 290.139679,928.004700 292.794128,925.853699 
	C295.663605,923.528503 299.442383,922.974365 302.592499,924.788025 
	C305.743286,926.602173 305.365906,930.217346 304.624969,933.344727 
	C303.659119,937.421204 301.264008,938.493652 297.228882,936.952148 
	C295.395874,936.251953 293.569794,935.533630 291.496338,934.529785 
z"/>
<path fill="#000000" opacity="1.000000" stroke="none" 
	d="
M433.418640,978.199463 
	C431.341492,981.984436 428.269196,982.715149 424.762054,981.964844 
	C421.899841,981.352417 418.964447,980.047058 419.338379,976.626892 
	C419.720856,973.128540 421.542084,969.846802 425.234497,968.760071 
	C428.608215,967.767151 434.017639,973.888611 433.418640,978.199463 
z"/>
<path fill="#000000" opacity="1.000000" stroke="none" 
	d="
M228.398865,976.848389 
	C228.950745,973.062500 231.817841,971.258606 234.118530,969.282837 
	C236.095245,967.585205 239.011703,967.282715 240.481339,970.247498 
	C241.828110,972.964355 245.907410,974.806152 244.425293,978.327454 
	C242.771423,982.256714 238.790283,979.603394 235.905090,980.211182 
	C232.705765,980.885193 229.908295,980.760193 228.398865,976.848389 
z"/>
<path fill="#000000" opacity="1.000000" stroke="none" 
	d="
M108.606445,908.479919 
	C104.361694,905.298706 104.790031,903.755493 110.380875,900.423218 
	C114.237549,898.124512 117.381683,899.982910 120.451790,902.101379 
	C122.665329,903.628906 122.419746,905.749329 121.522644,907.892273 
	C120.015770,911.491943 117.277847,912.358582 113.805412,911.076050 
	C112.110390,910.449951 110.540161,909.485962 108.606445,908.479919 
z"/>
<path fill="#000000" opacity="1.000000" stroke="none" 
	d="
M108.794434,938.557373 
	C102.892960,937.401611 100.030312,934.122803 101.746239,930.352661 
	C102.889542,927.840759 103.828773,924.316406 107.760483,924.778931 
	C110.343483,925.082825 115.950546,931.971252 115.293533,934.056458 
	C114.412987,936.851318 111.703949,937.708679 108.794434,938.557373 
z"/>
<path fill="#000000" opacity="1.000000" stroke="none" 
	d="
M212.377609,917.493652 
	C215.267487,913.387268 218.392822,913.365479 221.999359,915.933899 
	C224.734894,917.882080 225.520462,920.117126 223.997665,923.218201 
	C222.171997,926.936096 219.032593,927.587708 215.580017,926.600586 
	C210.866318,925.252686 210.731262,921.756042 212.377609,917.493652 
z"/>
<path fill="#000000" opacity="1.000000" stroke="none" 
	d="
M99.999794,827.965576 
	C95.952568,829.248108 93.447998,826.945862 91.824745,824.380188 
	C89.961784,821.435669 91.806046,818.555420 94.169144,816.627075 
	C97.278198,814.090027 100.248154,815.618652 102.372459,818.198425 
	C104.089981,820.284241 106.005142,822.859924 102.921860,825.533325 
	C102.050797,826.288574 101.178947,827.042969 99.999794,827.965576 
z"/>
<path fill="#000000" opacity="1.000000" stroke="none" 
	d="
M97.112823,842.719299 
	C97.783295,844.413452 97.989899,845.908813 98.574524,847.238037 
	C100.399887,851.388428 98.125610,853.559387 94.731865,854.759155 
	C91.376717,855.945374 87.732079,853.593811 87.134163,850.323914 
	C86.517326,846.950562 89.322365,842.516663 92.477890,841.979614 
	C93.946968,841.729614 95.437286,841.702820 97.112823,842.719299 
z"/>
<path fill="#000000" opacity="1.000000" stroke="none" 
	d="
M265.972351,986.043457 
	C263.328552,986.399536 257.237183,981.135071 257.568512,978.892212 
	C258.069885,975.498474 261.195618,974.867188 263.838318,974.068542 
	C265.993591,973.417175 267.643829,974.556580 268.959442,976.299500 
	C270.330627,978.116150 270.507416,979.955933 269.251282,981.828796 
	C268.328094,983.205383 267.247101,984.476074 265.972351,986.043457 
z"/>
<path fill="#000000" opacity="1.000000" stroke="none" 
	d="
M135.962555,129.042694 
	C135.719101,127.954018 135.360092,127.003998 135.666321,126.380936 
	C136.795120,124.084213 137.321030,121.210289 140.453888,120.535095 
	C141.708221,120.264748 142.938751,120.516479 143.418732,121.711227 
	C144.568329,124.572815 144.865585,127.884636 143.331116,130.352997 
	C140.727417,134.541336 138.423721,130.793472 135.962555,129.042694 
z"/>
<path fill="#000000" opacity="1.000000" stroke="none" 
	d="
M198.451553,133.305725 
	C200.123734,137.759293 196.319382,138.193222 194.147125,139.234634 
	C192.530960,140.009460 190.979782,138.349960 190.565140,136.602493 
	C189.923782,133.899551 191.079636,131.325836 193.218567,130.105591 
	C195.750778,128.660950 196.724030,131.740219 198.451553,133.305725 
z"/>
<path fill="#000000" opacity="1.000000" stroke="none" 
	d="
M93.279388,119.730057 
	C94.041550,122.432434 92.851250,123.561264 90.689034,123.799690 
	C88.746155,124.013924 86.535484,124.599709 85.129333,122.714012 
	C84.026970,121.235687 84.470970,119.094864 85.433716,118.008789 
	C88.490189,114.560753 90.906548,116.957405 93.279388,119.730057 
z"/>
<path fill="#000000" opacity="1.000000" stroke="none" 
	d="
M290.945557,979.888306 
	C294.746216,981.713684 294.984070,984.156006 292.121552,986.502808 
	C290.684479,987.680969 287.884369,988.886963 286.853363,986.626770 
	C285.389038,983.416565 287.196716,980.927612 290.945557,979.888306 
z"/>
<path fill="#000000" opacity="1.000000" stroke="none" 
	d="
M297.944702,954.899414 
	C299.279236,953.611816 300.540009,953.152283 301.222595,954.938354 
	C302.138580,957.335144 301.388519,959.359985 298.767792,961.073425 
	C297.839417,959.799927 296.903259,958.515808 295.641815,956.785461 
	C295.676605,956.189819 297.145569,956.032410 297.944702,954.899414 
z"/>
<path fill="#000000" opacity="1.000000" stroke="none" 
	d="
M253.996826,898.115662 
	C252.448059,899.714661 250.973892,900.156555 249.674515,898.459534 
	C248.839890,897.369263 248.904510,896.000122 249.546356,894.763123 
	C250.064957,893.763611 251.011063,893.439514 252.018784,893.763489 
	C253.999054,894.400146 255.005295,895.657410 253.996826,898.115662 
z"/>
<path fill="#000000" opacity="1.000000" stroke="none" 
	d="
M106.234169,770.463257 
	C104.958893,768.272034 104.424294,766.239624 107.255249,765.614258 
	C109.129852,765.200134 109.745712,766.955811 109.798820,768.498718 
	C109.879974,770.856018 108.921944,771.995911 106.234169,770.463257 
z"/>
<path fill="#000000" opacity="1.000000" stroke="none" 
	d="
M158.074829,184.482147 
	C158.360870,180.232574 161.358475,180.975647 164.510223,180.844788 
	C163.597336,184.784882 160.613037,184.048553 158.074829,184.482147 
z"/>
<path fill="#000000" opacity="1.000000" stroke="none" 
	d="
M547.350403,654.280945 
	C539.016907,674.998108 524.715698,689.631653 505.131744,699.235107 
	C489.583557,706.859558 472.833710,709.410400 456.083496,706.818115 
	C426.949524,702.309387 404.821442,686.859985 391.064484,660.257446 
	C383.731934,646.078125 381.141907,630.821716 383.278931,615.317261 
	C386.581146,591.359375 398.466003,572.042175 418.449982,558.057068 
	C436.815765,545.204407 457.422333,540.495483 479.389740,543.275513 
	C494.317505,545.164734 508.082916,550.738159 520.184509,560.277954 
	C531.250732,569.001526 539.942566,579.355957 545.989441,592.073975 
	C551.694397,604.072815 553.282471,616.676819 552.653015,629.788513 
	C552.251282,638.156921 551.131775,646.285950 547.350403,654.280945 
M490.692627,686.431030 
	C487.226135,687.854309 483.759674,689.277588 480.293182,690.700867 
	C514.647644,688.292480 546.235046,657.365906 542.732300,619.648987 
	C539.507812,584.928467 508.197998,560.791321 478.620728,558.824524 
	C480.395813,561.400330 483.460846,560.832886 485.796753,561.929382 
	C506.687073,571.735596 521.440796,586.644348 527.745972,609.513672 
	C532.054199,625.139832 529.846375,639.658936 522.965515,653.848328 
	C516.044861,668.119873 504.996979,678.375671 490.692627,686.431030 
z"/>
<path fill="#000000" opacity="1.000000" stroke="none" 
	d="
M694.890442,540.849976 
	C714.135681,548.600037 725.243835,563.229126 732.403992,581.663818 
	C737.166260,593.924988 738.692627,606.701965 736.982788,619.400757 
	C733.623718,644.347290 723.612976,665.743774 699.788147,677.815918 
	C681.544861,687.059937 658.253540,682.729614 643.923279,668.660522 
	C624.738586,649.825623 617.929565,626.810669 620.556580,600.529724 
	C622.427795,581.809326 629.751648,565.625977 643.434937,552.606934 
	C655.604675,541.028015 670.110474,536.102112 686.870667,538.608337 
	C689.464417,538.996216 691.960693,540.036682 694.890442,540.849976 
M707.235901,643.559875 
	C701.322083,655.059570 692.270325,663.539124 681.110657,670.069153 
	C694.153076,668.394714 705.412903,663.558777 713.409607,653.156921 
	C729.726074,631.932922 732.102295,608.696350 722.152039,584.156616 
	C715.205505,567.024658 702.214722,556.806091 684.267456,552.754089 
	C682.585449,552.374329 680.902588,551.936401 678.863586,552.996948 
	C713.809631,567.479919 723.194214,613.211670 707.235901,643.559875 
z"/>
<path fill="#000000" opacity="1.000000" stroke="none" 
	d="
M589.064941,691.274170 
	C586.842651,694.163696 587.406067,697.648010 585.632019,700.416443 
	C583.145386,704.297119 580.310120,707.384216 575.347717,707.005493 
	C571.552917,706.715881 566.488525,701.437378 565.944031,697.014954 
	C564.014832,681.344666 566.783020,666.593323 575.087341,653.015198 
	C581.975037,641.753357 593.066833,642.483826 601.496338,650.797119 
	C607.382690,656.602173 610.585999,664.196899 614.395508,671.374695 
	C617.854370,677.891602 620.090149,684.802063 621.579651,691.986023 
	C622.599365,696.904236 620.596802,700.851196 617.131226,703.997009 
	C613.277893,707.494873 609.951843,705.050720 607.130676,702.257812 
	C603.350098,698.515137 599.945251,694.392456 596.157837,690.657288 
	C593.978027,688.507568 591.381287,687.204468 589.064941,691.274170 
z"/>
<path fill="#000000" opacity="1.000000" stroke="none" 
	d="
M459.875214,241.212982 
	C465.656860,244.590698 466.814636,250.867874 469.756683,255.927994 
	C474.150085,263.484436 477.951813,271.384857 482.335541,279.770752 
	C486.924561,274.234070 488.121155,268.072388 490.566620,262.586212 
	C495.152954,252.297226 499.178955,241.757263 503.368439,231.293869 
	C504.036285,229.625854 504.831207,228.029190 506.750610,228.171463 
	C509.273926,228.358521 509.071869,230.654480 509.226135,232.405579 
	C510.537933,247.297989 511.912201,262.181732 514.258423,276.957489 
	C514.464661,278.256195 514.267212,279.650726 515.469299,280.765900 
	C517.908691,281.081604 518.707703,278.836029 519.925720,277.486725 
	C527.061707,269.581909 534.077087,261.568207 541.135376,253.593231 
	C542.271362,252.309753 543.538940,251.052490 545.402710,251.720490 
	C546.904236,252.258636 546.831543,253.728897 546.838928,255.115417 
	C546.913696,269.095245 547.045227,283.074738 547.124512,297.054535 
	C547.165649,304.304626 545.872986,304.728058 538.823547,303.425873 
	C523.779053,300.646820 508.585907,298.888977 493.209869,299.430176 
	C481.899475,299.828278 470.697632,301.006256 459.634552,303.421265 
	C456.001465,304.214325 455.811707,301.660828 455.797913,299.257538 
	C455.754852,291.766602 455.488464,284.263367 456.822815,276.827301 
	C458.542389,267.244507 457.621674,257.549164 457.976807,247.907593 
	C458.060577,245.633057 457.531464,243.174591 459.875214,241.212982 
z"/>
</svg>