<svg version="1.1" id="Layer_1" xmlns="http://www.w3.org/2000/svg" xmlns:xlink="http://www.w3.org/1999/xlink" x="0px" y="0px"
	 width="100%" viewBox="0 0 810 810" enable-background="new 0 0 810 810" xml:space="preserve">
<path fill="#FEFFFF" opacity="1.000000" stroke="none" 
	d="
M460.000000,811.000000 
	C306.666718,811.000000 153.833420,811.000000 1.000103,811.000000 
	C1.000068,541.000122 1.000068,271.000244 1.000034,1.000284 
	C270.999786,1.000189 540.999573,1.000189 810.999512,1.000095 
	C810.999695,270.999725 810.999695,540.999451 810.999878,810.999573 
	C694.166687,811.000000 577.333313,811.000000 460.000000,811.000000 
M763.090576,410.456665 
	C763.039062,410.289398 762.987549,410.122162 763.068298,409.594910 
	C763.068298,409.594910 763.049316,409.211884 763.661865,408.755859 
	C764.817322,399.196106 764.495605,389.666718 758.970337,381.498535 
	C750.927002,369.607635 739.053772,364.843597 724.924561,365.567932 
	C711.035889,366.279907 701.776978,373.874664 695.886292,385.949005 
	C688.738831,400.599243 688.824158,415.950867 692.898193,431.258881 
	C695.088318,439.488098 698.866333,447.421021 706.815735,451.809631 
	C722.334167,460.376862 738.271240,459.034637 753.834290,452.088135 
	C763.183777,447.914978 762.698914,447.526367 758.574768,437.932312 
	C756.852112,433.924805 754.940979,433.978455 751.356995,434.973450 
	C745.013794,436.734467 738.527222,438.639343 732.018494,438.999756 
	C720.144714,439.657349 713.423889,431.628143 714.765137,419.125580 
	C718.453674,418.910065 722.221619,418.689911 726.898682,418.719238 
	C736.924011,418.606689 746.949341,418.494141 757.739075,418.636078 
	C763.724304,418.220734 763.870056,418.010956 763.090576,410.456665 
M801.868164,318.514435 
	C801.666931,318.146545 801.392578,318.079834 800.170166,318.129761 
	C797.063965,318.283691 793.957764,318.437592 790.077393,318.874969 
	C789.860962,320.151062 789.450928,321.428101 789.457092,322.703064 
	C789.558594,343.681091 789.898682,364.659637 789.809021,385.636475 
	C789.688904,413.748260 789.241516,441.858643 788.945251,469.969757 
	C788.909485,473.366089 788.940369,476.763123 788.940369,480.071655 
	C793.888184,480.071655 797.824341,480.071655 802.110229,480.071655 
	C802.110229,474.299500 802.116943,468.846954 802.109070,463.394409 
	C802.065002,432.928406 802.017395,402.462433 802.121826,371.070068 
	C802.165405,360.637421 802.257446,350.204681 802.235535,339.772156 
	C802.221008,332.845612 802.043640,325.919403 801.868164,318.514435 
M34.468384,426.625061 
	C34.475399,412.344269 34.410328,398.062592 34.588184,383.783905 
	C34.608528,382.150665 35.987995,380.534302 37.700321,379.032837 
	C44.110680,379.032837 50.521038,379.032837 56.961288,379.032837 
	C56.961288,375.013428 56.961288,372.074951 56.961288,368.775452 
	C50.750832,368.775452 44.800106,368.660767 38.856716,368.819977 
	C35.481731,368.910370 34.040722,367.762726 34.194828,364.220276 
	C34.440289,358.577850 34.357864,352.919617 34.350029,347.268158 
	C34.341976,341.461914 32.648098,340.310822 27.086367,342.179108 
	C23.453779,343.399414 22.609808,346.261871 22.542984,349.651764 
	C22.418621,355.960480 22.254875,362.268402 21.333868,368.660797 
	C18.675926,368.659515 15.994237,368.450104 13.370592,368.749451 
	C12.155836,368.888062 10.211117,369.869690 10.060095,370.726868 
	C9.615136,373.252319 9.901294,375.906586 9.901294,378.705719 
	C14.073927,378.974396 18.019135,379.228424 22.323677,380.202881 
	C22.352545,397.466705 22.350523,414.730682 22.432175,431.994263 
	C22.452383,436.267029 22.148897,440.670746 23.060911,444.777374 
	C24.213663,449.967957 27.413950,453.946289 33.859177,455.162354 
	C38.453506,455.178894 43.048103,455.234772 47.642109,455.203613 
	C56.750210,455.141785 56.754192,455.121521 55.758224,445.956635 
	C55.727417,445.673157 55.411461,445.420654 54.945202,444.740570 
	C50.611950,444.740570 45.992664,444.811218 41.376621,444.719116 
	C37.418335,444.640106 34.720062,443.262848 34.926140,438.539764 
	C35.040028,435.929626 34.474377,433.289795 34.411690,430.033630 
	C34.316490,429.171082 34.221287,428.308533 34.468384,426.625061 
M207.258163,454.912170 
	C217.693741,450.798187 224.409332,443.077362 228.014343,432.706451 
	C232.993362,418.382690 232.543564,403.757294 228.681793,389.350830 
	C221.531036,362.674744 192.043777,361.155945 179.232162,376.730377 
	C178.211578,376.265900 176.916763,376.040680 176.245636,375.271362 
	C175.539322,374.461700 175.511063,373.095734 175.043762,372.035828 
	C173.580887,368.717621 168.636322,366.344208 165.040680,368.028351 
	C163.806458,368.606445 163.313171,371.809235 163.308487,373.814850 
	C163.222885,410.441772 163.263397,447.069031 163.276917,483.696198 
	C163.277939,486.458466 163.277054,489.220734 163.277054,492.155365 
	C165.597046,492.318390 167.230988,492.524078 168.865906,492.532135 
	C175.366653,492.564209 175.955658,492.053925 176.000839,485.527863 
	C176.064255,476.371429 175.935150,467.213715 175.977737,458.056976 
	C175.989670,455.494873 176.315781,452.934235 176.548370,449.661133 
	C185.511398,453.973267 193.734253,458.205841 204.459290,455.785278 
	C205.173508,455.528992 205.887726,455.272736 206.441284,454.928558 
	C206.441284,454.928558 206.468414,454.934723 207.258163,454.912170 
M94.915031,490.837524 
	C103.745003,486.400574 109.134567,479.060242 112.079117,469.885040 
	C118.166611,450.916473 124.231163,431.937561 129.994537,412.869049 
	C134.071396,399.380493 137.638107,385.737732 141.889450,371.365875 
	C141.361130,370.237915 140.619019,368.079865 140.336960,368.138397 
	C136.786194,368.875397 132.522018,365.456848 129.204514,370.405060 
	C122.339119,395.764954 115.473732,421.124847 108.608337,446.484741 
	C107.898781,446.475983 107.189224,446.467194 106.479675,446.458435 
	C105.622383,443.915405 104.695290,441.393494 103.918747,438.826019 
	C97.230713,416.713806 90.609154,394.581421 83.865242,372.486298 
	C82.627075,368.429688 76.539909,365.865784 72.632523,368.332947 
	C71.336555,369.151215 72.028648,373.136047 71.845322,375.675568 
	C71.822739,375.988403 71.997169,376.319702 72.098389,376.636658 
	C79.225090,398.952393 86.350372,421.268585 93.484207,443.582031 
	C95.378799,449.508026 96.178291,456.403137 104.888977,455.833923 
	C102.722839,466.681885 99.357895,474.509613 88.169960,482.788055 
	C84.421799,482.855133 80.588638,483.457520 76.943031,482.878693 
	C69.159035,481.642731 68.065361,482.282654 67.198280,491.962830 
	C74.230896,492.173431 81.221085,492.382782 88.877525,492.646820 
	C89.513618,492.459747 90.149719,492.272705 91.021080,492.260529 
	C91.357224,492.327606 91.584183,492.213287 92.624969,491.696899 
	C92.869881,491.496674 93.114799,491.296417 93.589226,491.261230 
	C93.939453,491.299683 94.121117,491.167603 94.915031,490.837524 
M588.817749,389.296204 
	C588.642761,388.472626 588.467773,387.649078 588.433655,386.150299 
	C584.050293,370.471375 572.066956,363.147339 556.584351,367.299683 
	C552.571716,368.375854 548.634155,370.794586 545.418213,373.496582 
	C541.801270,376.535522 539.458496,376.036377 536.937012,372.620209 
	C533.288086,367.676666 528.627075,365.490417 522.277039,366.114410 
	C518.360596,366.499298 517.103516,367.923004 517.167419,371.649597 
	C517.292725,378.963715 517.099792,386.282867 517.079041,393.600037 
	C517.023438,413.227631 516.939514,432.855621 517.066406,452.482117 
	C517.074341,453.695465 518.788635,455.918365 519.744263,455.937805 
	C525.530457,456.055573 531.326904,455.668976 537.888428,455.586517 
	C538.684326,454.286926 540.147522,452.998260 540.169067,451.686005 
	C540.321289,442.391235 540.053467,433.090118 540.163452,423.793915 
	C540.277100,414.189606 540.666321,404.588531 541.365845,394.447113 
	C546.031128,392.046631 550.494141,389.034973 555.414795,387.405853 
	C561.110474,385.520172 565.561035,388.983856 566.160461,395.086060 
	C566.613953,399.702972 566.541992,404.372620 566.676147,409.019592 
	C567.054504,422.126068 567.324707,435.236572 567.836243,448.337769 
	C568.029541,453.288147 571.284058,455.980072 575.955994,456.076294 
	C580.043579,456.160461 584.227234,455.566833 588.222656,454.642426 
	C590.614990,454.088928 592.242004,452.390167 591.346619,449.100769 
	C590.185913,444.836243 589.746582,440.375397 589.221191,435.230225 
	C589.195129,432.086700 589.183899,428.942932 589.140442,425.799652 
	C588.976074,413.911316 588.801331,402.023163 588.817749,389.296204 
M488.504150,418.549377 
	C488.504150,418.549377 488.842224,418.284637 489.596191,418.408661 
	C492.603027,418.676727 494.227753,417.727478 494.192200,414.281982 
	C494.145935,409.797760 494.884918,405.300293 494.762024,400.822876 
	C494.003418,373.185547 469.621613,359.048553 444.834625,367.824280 
	C437.929688,370.268921 432.345032,374.847137 428.874420,381.482971 
	C419.481018,399.443451 418.773499,417.959534 425.677155,436.875580 
	C428.946503,445.833588 434.858673,452.334259 444.082855,455.170410 
	C457.501740,459.296356 470.909790,458.473694 483.534943,452.590759 
	C492.219360,448.544067 494.437653,447.714905 488.852142,437.171692 
	C486.920929,433.526245 485.556396,433.505341 482.069336,434.756439 
	C476.498657,436.755035 470.636475,438.069000 464.804047,439.182709 
	C453.724365,441.298462 444.528412,433.269775 445.315155,418.348572 
	C459.551300,418.348572 473.837952,418.348572 488.504150,418.549377 
M386.669250,384.085083 
	C387.287445,384.330292 387.913879,384.556610 388.522583,384.823517 
	C400.338867,390.004425 400.203278,389.960205 404.355927,377.541687 
	C405.530365,374.029510 404.716797,372.306763 401.474945,370.969910 
	C389.645996,366.091919 377.383881,364.384827 364.782990,366.401550 
	C353.639832,368.184967 343.881836,378.194641 342.129395,388.881805 
	C340.400665,399.424347 345.517609,409.110046 356.483307,415.013062 
	C362.914551,418.475098 369.856354,421.001984 376.218994,424.572388 
	C379.170898,426.228851 383.285706,429.321136 383.348358,431.849823 
	C383.460693,436.386902 378.922394,438.980804 374.567657,440.101196 
	C372.076782,440.742096 369.223724,440.953979 366.735687,440.419250 
	C361.877258,439.375061 357.086121,437.878174 352.402313,436.192963 
	C345.085968,433.560577 345.139893,433.430786 342.254883,440.307861 
	C341.870697,441.223663 341.480347,442.161346 340.929199,442.978516 
	C338.523987,446.544983 339.262482,448.703522 343.246674,450.735779 
	C356.438141,457.464569 370.405487,458.526093 384.617126,456.331940 
	C395.014648,454.726593 404.381805,445.229767 405.873962,436.293427 
	C408.023804,423.418274 403.895813,413.981506 392.877838,407.543304 
	C388.598663,405.042847 383.946167,403.179749 379.456177,401.042145 
	C375.411011,399.116302 371.284454,397.346344 367.328918,395.252411 
	C364.561188,393.787201 363.972900,391.277771 365.176422,388.400421 
	C367.061768,383.893005 371.119293,381.667480 375.989502,382.418060 
	C379.272125,382.923981 382.558807,383.403107 386.669250,384.085083 
M645.346863,382.477997 
	C652.210388,384.429901 659.114136,386.254425 665.915344,388.403625 
	C668.257446,389.143738 669.535339,389.344208 670.300537,386.506348 
	C671.205750,383.149475 672.654785,379.942261 673.794983,376.644897 
	C674.810547,373.708099 674.485291,371.498047 670.861084,370.617493 
	C667.313843,369.755554 663.926392,368.164520 660.356262,367.481476 
	C647.261292,364.976074 634.542603,363.935028 622.255310,371.737671 
	C608.432129,380.515686 606.768188,406.019470 623.900146,414.157959 
	C631.112183,417.584045 638.483215,420.684570 645.617249,424.261688 
	C648.975342,425.945557 652.799194,428.068573 652.034363,432.737122 
	C651.265564,437.430145 647.412659,439.494843 643.204468,440.490509 
	C641.164185,440.973236 638.819214,441.002289 636.785645,440.514069 
	C631.793579,439.315643 626.767578,438.041504 622.000305,436.172516 
	C613.753113,432.939301 612.443787,433.413757 609.988586,442.086731 
	C609.853699,442.563171 609.929199,443.115631 609.733643,443.555756 
	C608.015869,447.421783 609.446350,449.133545 613.174133,451.152191 
	C625.588562,457.874756 638.787170,457.824066 652.118713,456.574432 
	C663.174377,455.538147 672.813538,447.230011 674.960083,437.766998 
	C677.843140,425.057098 673.976746,414.416229 663.281128,407.958649 
	C657.783813,404.639618 651.477661,402.690033 645.761414,399.693451 
	C642.016357,397.730255 638.417358,395.282379 635.297058,392.451813 
	C634.287598,391.536072 634.202271,387.613007 635.083618,386.970062 
	C637.859985,384.944550 641.295837,383.822937 645.346863,382.477997 
M266.816284,450.682404 
	C270.782562,452.557434 274.579285,455.383148 278.747375,456.126434 
	C290.511108,458.224182 301.771271,456.093140 312.533417,450.627441 
	C319.545776,447.066101 319.735565,447.428101 316.188232,440.382080 
	C315.914886,439.839142 315.508301,439.363312 315.054016,438.695007 
	C311.300690,440.110626 307.813385,441.685242 304.173676,442.727509 
	C300.351318,443.821991 296.403168,444.526154 292.474548,445.191406 
	C280.644684,447.194641 271.371765,441.291504 268.188446,429.695343 
	C267.398468,426.817627 267.231812,423.768097 266.432556,420.893829 
	C265.264954,416.695007 266.772217,415.827179 270.861786,415.913971 
	C286.165741,416.238739 301.478455,416.247375 316.786224,416.140717 
	C318.273804,416.130341 320.981537,414.587250 321.044586,413.620148 
	C321.823181,401.681519 321.099274,389.886139 314.065887,379.584961 
	C304.177704,365.102631 284.515839,364.202332 274.185669,369.148102 
	C265.640381,373.239319 259.887360,380.869934 256.471008,389.962006 
	C251.737350,402.559967 252.304764,415.378937 254.503082,428.339020 
	C255.973389,437.007050 259.394348,444.524017 266.816284,450.682404 
z"/>
<path fill="#143DC5" opacity="1.000000" stroke="none" 
	d="
M763.049316,409.211884 
	C763.049316,409.211884 763.068298,409.594910 762.789551,409.892151 
	C762.244446,410.401550 762.087097,410.676208 762.016357,411.375427 
	C761.965210,412.462402 761.936707,413.187347 761.602234,413.981476 
	C760.858704,414.684265 760.421143,415.317841 759.613403,415.968781 
	C758.503601,416.017181 757.763977,416.048187 756.625366,416.066650 
	C746.145203,416.385895 736.064026,416.717743 725.524292,417.037933 
	C722.232849,417.019379 719.327148,416.629669 716.594543,417.149475 
	C714.961243,417.460205 712.618530,418.951752 712.275208,420.330902 
	C710.165039,428.806763 714.512390,436.559906 721.888855,439.740509 
	C731.164917,443.740265 740.422241,441.703796 749.324646,438.030457 
	C754.148193,436.040131 755.736145,436.481689 757.262695,441.269867 
	C757.611206,442.362946 758.113403,443.407013 758.635254,444.696991 
	C757.015259,446.130493 755.644043,447.946930 753.820496,448.857330 
	C743.661926,453.929077 732.892578,456.050507 721.526550,455.004150 
	C712.644287,454.186462 704.439575,447.511261 701.729431,438.917023 
	C701.517517,438.244995 700.379089,437.868896 699.677734,437.346436 
	C698.887390,436.757690 697.624451,436.302155 697.397461,435.541077 
	C696.062439,431.064331 694.672913,426.568573 693.850464,421.980835 
	C691.308838,407.802795 692.732788,394.191833 701.446350,382.235748 
	C706.486816,375.319641 712.918213,369.276031 721.684204,368.197540 
	C743.171509,365.554016 762.339233,378.391174 762.012878,403.386536 
	C762.306885,405.202911 762.613464,406.632080 762.941833,408.350098 
	C762.992188,408.829926 763.020752,409.020905 763.049316,409.211884 
M716.757019,405.976227 
	C724.179016,405.637421 731.629395,405.567474 739.005005,404.789154 
	C741.106079,404.567474 744.509460,402.504700 744.736694,400.917023 
	C746.843140,386.200073 739.156067,378.645264 724.640808,380.229187 
	C721.904053,380.527802 718.210022,381.963013 716.973267,384.061523 
	C714.289856,388.614746 712.826904,393.906281 711.020508,398.951599 
	C709.414307,403.437958 712.092712,405.151428 716.757019,405.976227 
z"/>
<path fill="#2A42A1" opacity="1.000000" stroke="none" 
	d="
M386.256470,383.989655 
	C382.558807,383.403107 379.272125,382.923981 375.989502,382.418060 
	C371.119293,381.667480 367.061768,383.893005 365.176422,388.400421 
	C363.972900,391.277771 364.561188,393.787201 367.328918,395.252411 
	C371.284454,397.346344 375.411011,399.116302 379.456177,401.042145 
	C383.946167,403.179749 388.598663,405.042847 392.877838,407.543304 
	C403.895813,413.981506 408.023804,423.418274 405.873962,436.293427 
	C404.381805,445.229767 395.014648,454.726593 384.617126,456.331940 
	C370.405487,458.526093 356.438141,457.464569 343.246674,450.735779 
	C339.262482,448.703522 338.523987,446.544983 340.929199,442.978516 
	C341.480347,442.161346 341.870697,441.223663 342.254883,440.307861 
	C345.139893,433.430786 345.085968,433.560577 352.402313,436.192963 
	C357.086121,437.878174 361.877258,439.375061 366.735687,440.419250 
	C369.223724,440.953979 372.076782,440.742096 374.567657,440.101196 
	C378.922394,438.980804 383.460693,436.386902 383.348358,431.849823 
	C383.285706,429.321136 379.170898,426.228851 376.218994,424.572388 
	C369.856354,421.001984 362.914551,418.475098 356.483307,415.013062 
	C345.517609,409.110046 340.400665,399.424347 342.129395,388.881805 
	C343.881836,378.194641 353.639832,368.184967 364.782990,366.401550 
	C377.383881,364.384827 389.645996,366.091919 401.474945,370.969910 
	C404.716797,372.306763 405.530365,374.029510 404.355927,377.541687 
	C400.203278,389.960205 400.338867,390.004425 388.522583,384.823517 
	C387.913879,384.556610 387.287445,384.330292 386.256470,383.989655 
M352.569183,376.533447 
	C342.974518,384.336853 340.984955,393.375580 348.648682,403.116211 
	C350.957275,406.050476 353.730988,408.908386 356.882904,410.832947 
	C364.965210,415.768066 373.387573,420.144989 381.657623,424.774384 
	C385.858185,427.125763 386.777161,430.195190 384.657715,434.514526 
	C381.442535,441.067047 373.571503,444.691498 365.634918,442.598206 
	C360.236816,441.174500 355.137512,438.644958 349.775940,437.039490 
	C348.151703,436.553101 345.046387,436.861755 344.415314,437.898956 
	C340.934326,443.620087 343.431091,449.211792 349.942688,450.997437 
	C354.331116,452.200867 358.747498,453.368500 363.217224,454.196960 
	C376.442627,456.648254 388.431671,454.494354 398.536224,444.778534 
	C404.876923,438.681854 406.013641,423.228210 400.360565,416.810974 
	C393.313232,408.811066 383.843658,405.232819 374.139984,401.942749 
	C365.443909,398.994293 356.988708,393.498016 364.658112,383.697205 
	C366.940613,382.475342 369.243896,380.183960 371.501770,380.227814 
	C378.910370,380.371735 386.488708,380.695557 393.095581,384.755890 
	C397.827148,387.663788 398.926849,383.639771 400.426086,380.985596 
	C402.014221,378.174103 404.058533,375.046570 399.183899,372.819672 
	C390.047943,368.646057 380.374847,367.704376 370.587677,368.089539 
	C363.843506,368.355011 357.672058,370.742950 352.569183,376.533447 
z"/>
<path fill="#2A42A1" opacity="1.000000" stroke="none" 
	d="
M644.911621,382.414734 
	C641.295837,383.822937 637.859985,384.944550 635.083618,386.970062 
	C634.202271,387.613007 634.287598,391.536072 635.297058,392.451813 
	C638.417358,395.282379 642.016357,397.730255 645.761414,399.693451 
	C651.477661,402.690033 657.783813,404.639618 663.281128,407.958649 
	C673.976746,414.416229 677.843140,425.057098 674.960083,437.766998 
	C672.813538,447.230011 663.174377,455.538147 652.118713,456.574432 
	C638.787170,457.824066 625.588562,457.874756 613.174133,451.152191 
	C609.446350,449.133545 608.015869,447.421783 609.733643,443.555756 
	C609.929199,443.115631 609.853699,442.563171 609.988586,442.086731 
	C612.443787,433.413757 613.753113,432.939301 622.000305,436.172516 
	C626.767578,438.041504 631.793579,439.315643 636.785645,440.514069 
	C638.819214,441.002289 641.164185,440.973236 643.204468,440.490509 
	C647.412659,439.494843 651.265564,437.430145 652.034363,432.737122 
	C652.799194,428.068573 648.975342,425.945557 645.617249,424.261688 
	C638.483215,420.684570 631.112183,417.584045 623.900146,414.157959 
	C606.768188,406.019470 608.432129,380.515686 622.255310,371.737671 
	C634.542603,363.935028 647.261292,364.976074 660.356262,367.481476 
	C663.926392,368.164520 667.313843,369.755554 670.861084,370.617493 
	C674.485291,371.498047 674.810547,373.708099 673.794983,376.644897 
	C672.654785,379.942261 671.205750,383.149475 670.300537,386.506348 
	C669.535339,389.344208 668.257446,389.143738 665.915344,388.403625 
	C659.114136,386.254425 652.210388,384.429901 644.911621,382.414734 
M618.356506,379.287384 
	C611.844788,386.608429 611.903137,398.700592 618.819763,405.263428 
	C625.429260,411.534912 632.874268,416.481750 641.647949,419.557373 
	C645.707275,420.980377 649.401184,423.811829 652.794434,426.576996 
	C654.032715,427.586121 654.618225,430.380890 654.297729,432.141907 
	C653.128723,438.564575 647.436401,442.932800 640.823792,442.977936 
	C633.195435,443.029999 626.241577,440.620361 619.473999,437.305756 
	C618.101196,436.633423 615.694031,436.380646 614.601013,437.139862 
	C611.001343,439.640320 611.478394,447.113464 615.346619,449.109009 
	C619.072876,451.031311 622.992554,453.266327 627.026367,453.770538 
	C637.427307,455.070679 647.730774,456.333466 658.195862,452.068451 
	C669.279785,447.551147 676.917969,434.490326 672.193237,421.813538 
	C668.680725,412.389221 660.979004,408.362244 652.611694,405.023407 
	C645.569336,402.213257 637.849426,400.510986 632.969116,394.189117 
	C631.588684,392.400970 630.974915,388.432465 632.032410,386.695160 
	C633.983887,383.489014 636.887634,380.282990 641.652893,380.983734 
	C644.422913,381.391083 647.218689,381.622833 650.835205,381.980286 
	C655.135681,383.105408 659.504395,384.026337 663.711487,385.431030 
	C666.296814,386.294189 667.855164,385.970123 668.785156,383.357849 
	C669.284912,381.953949 669.866882,380.579559 670.397278,379.186340 
	C671.809021,375.478516 671.429565,372.674988 666.842712,371.798828 
	C661.828674,370.841095 656.822327,369.834503 651.835205,368.745789 
	C638.934631,365.929413 627.962341,369.220245 618.356506,379.287384 
z"/>
<path fill="#2A46B1" opacity="1.000000" stroke="none" 
	d="
M266.534973,450.466553 
	C259.394348,444.524017 255.973389,437.007050 254.503082,428.339020 
	C252.304764,415.378937 251.737350,402.559967 256.471008,389.962006 
	C259.887360,380.869934 265.640381,373.239319 274.185669,369.148102 
	C284.515839,364.202332 304.177704,365.102631 314.065887,379.584961 
	C321.099274,389.886139 321.823181,401.681519 321.044586,413.620148 
	C320.981537,414.587250 318.273804,416.130341 316.786224,416.140717 
	C301.478455,416.247375 286.165741,416.238739 270.861786,415.913971 
	C266.772217,415.827179 265.264954,416.695007 266.432556,420.893829 
	C267.231812,423.768097 267.398468,426.817627 268.188446,429.695343 
	C271.371765,441.291504 280.644684,447.194641 292.474548,445.191406 
	C296.403168,444.526154 300.351318,443.821991 304.173676,442.727509 
	C307.813385,441.685242 311.300690,440.110626 315.054016,438.695007 
	C315.508301,439.363312 315.914886,439.839142 316.188232,440.382080 
	C319.735565,447.428101 319.545776,447.066101 312.533417,450.627441 
	C301.771271,456.093140 290.511108,458.224182 278.747375,456.126434 
	C274.579285,455.383148 270.782562,452.557434 266.534973,450.466553 
M318.022827,399.168427 
	C317.674957,396.781067 317.327087,394.393677 316.983795,391.235474 
	C313.386383,374.139771 295.683563,366.336029 279.610291,369.527435 
	C267.869324,371.858673 256.985901,388.511536 255.875107,401.828003 
	C253.946579,410.975769 254.747025,420.003326 257.104401,429.725708 
	C257.384308,430.679932 257.582916,431.667297 257.956573,432.583252 
	C262.201447,442.988129 267.660065,452.408020 279.980896,454.427185 
	C292.809296,456.529510 304.131012,451.374023 315.291992,446.003571 
	C315.510681,445.898346 315.554321,445.429321 315.778687,444.893402 
	C314.318481,441.683380 312.084167,441.580017 308.978363,442.956360 
	C300.083710,446.898041 290.709076,449.028381 281.115082,446.819000 
	C274.270569,445.242767 268.858582,440.319611 266.332550,434.039246 
	C264.247162,428.854401 264.603912,422.687317 264.032257,416.256622 
	C265.355164,415.472534 266.678101,414.688446 268.936829,413.968018 
	C280.957886,413.984741 292.978912,414.001465 305.831665,414.036377 
	C307.216431,414.035461 308.601166,414.034515 310.731903,414.048431 
	C311.477753,414.065887 312.223633,414.083374 313.290955,414.514099 
	C313.869934,414.372070 314.448944,414.230011 315.810516,414.028229 
	C319.934784,411.229614 318.872986,406.966187 318.969147,402.339966 
	C318.652802,401.557098 318.336456,400.774231 318.022827,399.168427 
z"/>
<path fill="#2A42A1" opacity="1.000000" stroke="none" 
	d="
M488.124573,418.348572 
	C473.837952,418.348572 459.551300,418.348572 445.315155,418.348572 
	C444.528412,433.269775 453.724365,441.298462 464.804047,439.182709 
	C470.636475,438.069000 476.498657,436.755035 482.069336,434.756439 
	C485.556396,433.505341 486.920929,433.526245 488.852142,437.171692 
	C494.437653,447.714905 492.219360,448.544067 483.534943,452.590759 
	C470.909790,458.473694 457.501740,459.296356 444.082855,455.170410 
	C434.858673,452.334259 428.946503,445.833588 425.677155,436.875580 
	C418.773499,417.959534 419.481018,399.443451 428.874420,381.482971 
	C432.345032,374.847137 437.929688,370.268921 444.834625,367.824280 
	C469.621613,359.048553 494.003418,373.185547 494.762024,400.822876 
	C494.884918,405.300293 494.145935,409.797760 494.192200,414.281982 
	C494.227753,417.727478 492.603027,418.676727 489.133118,418.291870 
	C488.455353,418.121124 488.273499,418.178955 488.124573,418.348572 
M438.985016,450.015320 
	C438.985016,450.015320 439.023102,450.049438 439.335815,450.517639 
	C439.860352,450.683167 440.384918,450.848724 440.949005,451.053375 
	C440.949005,451.053375 440.989349,451.091675 441.097748,451.746857 
	C442.392944,452.500336 443.688110,453.253845 445.706543,454.303741 
	C453.864777,457.025482 462.125702,456.722595 470.188416,454.316498 
	C475.836823,452.630951 481.483826,450.510406 486.620209,447.662170 
	C491.607117,444.896851 487.773865,440.832428 486.429565,437.660431 
	C486.136261,436.968353 482.568298,437.336121 480.614960,437.735962 
	C474.346680,439.019226 468.190460,441.173370 461.872864,441.799500 
	C455.776062,442.403717 450.021332,440.035187 446.450287,434.744751 
	C444.515869,431.879028 443.877808,428.165985 442.443268,424.928925 
	C440.038361,419.502197 441.485443,417.123932 447.358551,416.989899 
	C460.232025,416.696167 473.104401,416.141113 485.977081,416.145660 
	C490.082214,416.147095 491.471558,414.053650 491.810516,410.920959 
	C493.326874,396.907837 491.710663,384.105652 479.311676,374.584137 
	C470.197632,367.585236 455.162598,364.858673 445.290924,370.434937 
	C431.405334,378.278534 423.045685,390.084808 423.112091,406.521362 
	C423.142303,414.005707 424.359375,421.485229 425.011536,429.676849 
	C425.977386,431.116577 426.943268,432.556305 428.015594,434.704742 
	C428.677490,436.477905 429.339355,438.251068 430.046204,440.660065 
	C430.691650,441.431244 431.337097,442.202454 432.427917,443.213501 
	C432.625397,443.482178 432.822906,443.750854 433.081268,444.651184 
	C433.700348,445.105835 434.319458,445.560516 434.983246,446.512329 
	C434.983246,446.512329 435.029327,447.009399 435.285919,447.589111 
	C436.174500,448.061890 437.063080,448.534698 437.985413,449.016632 
	C437.985413,449.016632 438.005493,449.045197 438.207092,449.458832 
	C438.393677,449.717987 438.640320,449.892059 438.985016,450.015320 
z"/>
<path fill="#2A42A1" opacity="1.000000" stroke="none" 
	d="
M762.025513,402.999359 
	C762.339233,378.391174 743.171509,365.554016 721.684204,368.197540 
	C712.918213,369.276031 706.486816,375.319641 701.446350,382.235748 
	C692.732788,394.191833 691.308838,407.802795 693.850464,421.980835 
	C694.672913,426.568573 696.062439,431.064331 697.397461,435.541077 
	C697.624451,436.302155 698.887390,436.757690 699.677734,437.346436 
	C700.379089,437.868896 701.517517,438.244995 701.729431,438.917023 
	C704.439575,447.511261 712.644287,454.186462 721.526550,455.004150 
	C732.892578,456.050507 743.661926,453.929077 753.820496,448.857330 
	C755.644043,447.946930 757.015259,446.130493 758.635254,444.696991 
	C758.113403,443.407013 757.611206,442.362946 757.262695,441.269867 
	C755.736145,436.481689 754.148193,436.040131 749.324646,438.030457 
	C740.422241,441.703796 731.164917,443.740265 721.888855,439.740509 
	C714.512390,436.559906 710.165039,428.806763 712.275208,420.330902 
	C712.618530,418.951752 714.961243,417.460205 716.594543,417.149475 
	C719.327148,416.629669 722.232849,417.019379 725.529419,417.274048 
	C726.004578,417.837799 726.003418,418.153809 725.989624,418.469757 
	C722.221619,418.689911 718.453674,418.910065 714.765137,419.125580 
	C713.423889,431.628143 720.144714,439.657349 732.018494,438.999756 
	C738.527222,438.639343 745.013794,436.734467 751.356995,434.973450 
	C754.940979,433.978455 756.852112,433.924805 758.574768,437.932312 
	C762.698914,447.526367 763.183777,447.914978 753.834290,452.088135 
	C738.271240,459.034637 722.334167,460.376862 706.815735,451.809631 
	C698.866333,447.421021 695.088318,439.488098 692.898193,431.258881 
	C688.824158,415.950867 688.738831,400.599243 695.886292,385.949005 
	C701.776978,373.874664 711.035889,366.279907 724.924561,365.567932 
	C739.053772,364.843597 750.927002,369.607635 758.970337,381.498535 
	C764.495605,389.666718 764.817322,399.196106 763.355591,408.983887 
	C763.020752,409.020905 762.992188,408.829926 762.967529,407.957672 
	C762.656128,405.850708 762.340820,404.425049 762.025513,402.999359 
z"/>
<path fill="#2A46B1" opacity="1.000000" stroke="none" 
	d="
M88.967545,482.837402 
	C99.357895,474.509613 102.722839,466.681885 104.888977,455.833923 
	C96.178291,456.403137 95.378799,449.508026 93.484207,443.582031 
	C86.350372,421.268585 79.225090,398.952393 72.098389,376.636658 
	C71.997169,376.319702 71.822739,375.988403 71.845322,375.675568 
	C72.028648,373.136047 71.336555,369.151215 72.632523,368.332947 
	C76.539909,365.865784 82.627075,368.429688 83.865242,372.486298 
	C90.609154,394.581421 97.230713,416.713806 103.918747,438.826019 
	C104.695290,441.393494 105.622383,443.915405 106.479675,446.458435 
	C107.189224,446.467194 107.898781,446.475983 108.608337,446.484741 
	C115.473732,421.124847 122.339119,395.764954 129.696106,370.255615 
	C130.458496,370.420105 130.729279,370.734039 130.830536,371.397766 
	C130.201263,373.986389 129.821075,376.245056 129.267670,378.460480 
	C127.155861,386.914734 125.077431,395.379028 122.817772,403.794250 
	C120.288857,413.212189 117.576881,422.580933 114.668434,432.246063 
	C112.580658,438.324615 110.769012,444.128174 108.611908,449.943726 
	C106.859467,449.288147 105.452492,448.620636 103.992340,447.576721 
	C102.400520,440.980225 101.141037,434.674744 99.270691,428.556000 
	C93.745461,410.480560 87.957108,392.485748 82.329521,374.441315 
	C81.478523,371.712677 80.652824,369.186462 76.988068,370.159302 
	C73.005341,371.216553 73.611519,374.123413 74.467812,376.947876 
	C77.098488,385.625275 79.682358,394.320221 82.518639,402.931183 
	C87.585945,418.315582 92.824547,433.643524 98.027809,449.360199 
	C100.693413,451.156830 103.322716,452.588379 106.110771,454.367126 
	C106.501663,455.496704 107.078079,456.361298 106.913925,457.049072 
	C104.725204,466.218842 101.715240,475.095612 94.464745,481.589417 
	C91.760910,484.011078 88.426994,486.500977 84.535004,484.208984 
	C86.235374,483.696259 87.601463,483.266815 88.967545,482.837402 
z"/>
<path fill="#304AAA" opacity="1.000000" stroke="none" 
	d="
M537.119934,455.450928 
	C531.326904,455.668976 525.530457,456.055573 519.744263,455.937805 
	C518.788635,455.918365 517.074341,453.695465 517.066406,452.482117 
	C516.939514,432.855621 517.023438,413.227631 517.079041,393.600037 
	C517.099792,386.282867 517.292725,378.963715 517.167419,371.649597 
	C517.103516,367.923004 518.360596,366.499298 522.277039,366.114410 
	C528.627075,365.490417 533.288086,367.676666 536.937012,372.620209 
	C539.458496,376.036377 541.801270,376.535522 545.418213,373.496582 
	C548.634155,370.794586 552.571716,368.375854 556.584351,367.299683 
	C572.066956,363.147339 584.050293,370.471375 588.203064,386.368591 
	C587.633423,386.384857 587.294373,386.182800 586.771729,385.708954 
	C584.572388,382.582184 582.742432,379.570770 580.499695,376.906921 
	C576.622314,372.301422 572.039795,367.152679 565.788208,368.293854 
	C559.007874,369.531525 552.364990,372.654358 546.257141,376.031342 
	C542.414062,378.156158 539.655212,379.078522 536.295593,375.961304 
	C533.755859,373.604919 531.257812,371.171600 528.503052,369.087189 
	C525.247498,366.623901 520.373230,368.413086 520.025574,372.152100 
	C519.535400,377.424957 519.359253,382.727020 519.031860,388.477722 
	C519.026367,392.952545 519.037842,396.966278 519.027954,401.435974 
	C519.018127,404.932800 519.029663,407.973633 519.027344,411.481934 
	C519.013794,418.628601 519.014160,425.307831 519.001831,432.456696 
	C518.985352,438.061584 519.033997,443.197601 518.957703,448.331757 
	C518.913025,451.336548 519.737366,453.491974 523.104858,454.003967 
	C531.335083,455.255310 535.798706,454.005981 537.045410,449.773987 
	C537.055969,449.548187 537.082520,449.096893 537.331299,449.077087 
	C537.580139,449.057312 538.075439,448.994781 538.324768,449.241577 
	C538.089355,451.475861 537.604675,453.463409 537.119934,455.450928 
z"/>
<path fill="#2A46B1" opacity="1.000000" stroke="none" 
	d="
M203.319748,455.866272 
	C193.734253,458.205841 185.511398,453.973267 176.548370,449.661133 
	C176.315781,452.934235 175.989670,455.494873 175.977737,458.056976 
	C175.935150,467.213715 176.064255,476.371429 176.000839,485.527863 
	C175.955658,492.053925 175.366653,492.564209 168.865906,492.532135 
	C167.230988,492.524078 165.597046,492.318390 163.277054,492.155365 
	C163.277054,489.220734 163.277939,486.458466 163.276917,483.696198 
	C163.263397,447.069031 163.222885,410.441772 163.308487,373.814850 
	C163.313171,371.809235 163.806458,368.606445 165.040680,368.028351 
	C168.636322,366.344208 173.580887,368.717621 175.043762,372.035828 
	C175.511063,373.095734 175.539322,374.461700 176.245636,375.271362 
	C176.916763,376.040680 178.211578,376.265900 179.687195,376.721191 
	C180.142242,376.712006 180.191788,377.081207 180.098801,377.406250 
	C179.007431,378.483307 178.009033,379.235382 176.812271,379.705444 
	C175.731628,378.070068 174.570572,376.819153 174.027420,375.341187 
	C173.019806,372.599243 171.595093,369.902802 168.472107,371.285004 
	C166.807816,372.021606 165.186554,374.938354 165.140213,376.908600 
	C164.846725,389.389587 164.894638,401.882233 165.037613,414.368652 
	C165.149658,424.155334 165.811325,433.939362 165.779907,443.723145 
	C165.735641,457.507019 165.244690,471.289032 165.022339,485.073120 
	C164.979370,487.737793 165.571411,490.108765 169.117050,490.025208 
	C172.425766,489.947266 174.081177,488.299957 173.963562,485.058838 
	C173.765381,479.597473 173.258636,474.142883 173.201202,468.682098 
	C173.141998,463.054596 173.032913,457.366394 173.762161,451.811981 
	C174.305222,447.675507 178.595322,446.698700 182.044739,449.167114 
	C184.018311,450.579437 186.194092,452.173065 188.478760,452.590363 
	C193.243103,453.460541 198.140213,453.603821 202.905762,454.247620 
	C202.992432,454.921722 203.156082,455.394012 203.319748,455.866272 
z"/>
<path fill="#304AAA" opacity="1.000000" stroke="none" 
	d="
M801.970947,371.996429 
	C802.017395,402.462433 802.065002,432.928406 802.109070,463.394409 
	C802.116943,468.846954 802.110229,474.299500 802.110229,480.071655 
	C797.824341,480.071655 793.888184,480.071655 788.940369,480.071655 
	C788.940369,476.763123 788.909485,473.366089 788.945251,469.969757 
	C789.241516,441.858643 789.688904,413.748260 789.809021,385.636475 
	C789.898682,364.659637 789.558594,343.681091 789.457092,322.703064 
	C789.450928,321.428101 789.860962,320.151062 790.511963,319.096436 
	C791.296326,319.930298 791.646240,320.542725 791.984070,321.579102 
	C791.652893,326.462250 791.065308,330.920929 791.056824,335.380737 
	C790.983582,374.018890 791.015076,412.657288 791.013855,451.295593 
	C791.013611,458.623535 790.907471,465.953888 791.088013,473.277252 
	C791.122620,474.683258 791.967102,476.899750 792.973022,477.263733 
	C794.633179,477.864502 797.262939,477.936890 798.488281,476.970032 
	C799.662354,476.043671 799.968994,473.512238 799.973755,471.684448 
	C800.054932,440.374329 800.014709,409.063934 800.065552,377.753693 
	C800.068665,375.834564 800.607117,373.916321 801.165100,372.002441 
	C801.612854,372.003632 801.791931,372.000031 801.970947,371.996429 
z"/>
<path fill="#243EA5" opacity="1.000000" stroke="none" 
	d="
M586.955322,385.980743 
	C587.294373,386.182800 587.633423,386.384857 588.132568,386.706238 
	C588.467773,387.649078 588.642761,388.472626 588.499512,390.047150 
	C588.123474,404.979858 588.047668,419.161652 588.050537,433.343414 
	C588.050720,434.228699 588.666992,435.113861 588.996704,435.999054 
	C589.746582,440.375397 590.185913,444.836243 591.346619,449.100769 
	C592.242004,452.390167 590.614990,454.088928 588.222656,454.642426 
	C584.227234,455.566833 580.043579,456.160461 575.955994,456.076294 
	C571.284058,455.980072 568.029541,453.288147 567.836243,448.337769 
	C567.324707,435.236572 567.054504,422.126068 566.676147,409.019592 
	C566.541992,404.372620 566.613953,399.702972 566.160461,395.086060 
	C565.561035,388.983856 561.110474,385.520172 555.414795,387.405853 
	C550.494141,389.034973 546.031128,392.046631 540.901245,394.830750 
	C539.952393,395.464752 539.468079,395.715118 538.986694,395.597870 
	C540.681946,387.007050 548.275879,386.255066 554.132690,384.376617 
	C562.927368,381.555847 569.029114,386.702240 568.943604,395.753784 
	C568.903015,400.045105 568.017273,404.335693 568.072876,408.619354 
	C568.226013,420.403412 568.587402,432.186920 569.037048,443.964142 
	C569.324646,451.497620 575.874939,456.326385 582.948975,453.572021 
	C585.552551,452.558319 589.225098,448.230682 588.733093,446.405884 
	C586.893311,439.580994 586.470093,432.987823 586.801147,425.936340 
	C587.425232,412.644684 586.964905,399.302124 586.955322,385.980743 
z"/>
<path fill="#2A46B1" opacity="1.000000" stroke="none" 
	d="
M90.785812,492.085632 
	C90.149719,492.272705 89.513618,492.459747 88.480255,492.252563 
	C88.047531,491.612732 88.012070,491.367188 88.335632,491.044464 
	C94.721977,488.195374 101.031197,485.666779 104.323265,479.369415 
	C107.129417,474.001526 109.942322,468.561188 111.952888,462.870483 
	C115.310341,453.367523 118.029823,443.639191 121.028183,433.618896 
	C121.061348,432.200867 121.084213,431.169647 121.414688,430.056305 
	C122.130768,429.310242 122.539230,428.646332 123.009705,427.613739 
	C123.713005,424.830475 124.354286,422.415894 125.015762,419.758789 
	C125.035973,419.516296 125.056656,419.030060 125.306114,418.811890 
	C125.709480,417.732422 125.863388,416.871063 126.278503,415.802582 
	C126.699753,414.732880 126.859787,413.870361 127.072433,412.639893 
	C131.094986,398.866333 135.064911,385.460724 139.239044,372.172913 
	C140.106369,372.248444 140.769455,372.206146 141.432556,372.163818 
	C137.638107,385.737732 134.071396,399.380493 129.994537,412.869049 
	C124.231163,431.937561 118.166611,450.916473 112.079117,469.885040 
	C109.134567,479.060242 103.745003,486.400574 94.435097,490.896667 
	C93.756477,491.001709 93.557999,491.048492 93.359711,491.096191 
	C93.114799,491.296417 92.869881,491.496674 91.933937,491.846252 
	C91.242905,491.995605 90.785812,492.085632 90.785812,492.085632 
z"/>
<path fill="#243EA5" opacity="1.000000" stroke="none" 
	d="
M180.191803,377.081238 
	C180.191788,377.081207 180.142242,376.712006 180.116165,376.527527 
	C192.043777,361.155945 221.531036,362.674744 228.681793,389.350830 
	C232.543564,403.757294 232.993362,418.382690 228.014343,432.706451 
	C224.409332,443.077362 217.693741,450.798187 206.874695,454.952332 
	C206.491241,454.992493 206.601944,455.016479 206.601944,455.016479 
	C205.887726,455.272736 205.173508,455.528992 203.889526,455.825775 
	C203.156082,455.394012 202.992432,454.921722 203.217773,454.077179 
	C204.921158,453.035553 206.202118,452.288025 207.555313,451.709534 
	C216.576904,447.852753 222.736389,441.416473 225.915573,432.041748 
	C230.557556,418.353577 229.899582,404.465210 226.537109,390.847473 
	C224.843109,383.986908 221.945816,376.933563 214.903259,372.782043 
	C214.593613,372.309753 214.331055,372.148651 213.676514,372.053406 
	C212.906250,371.993011 212.465256,371.968933 211.799423,371.659088 
	C204.949783,368.200928 198.305786,367.549469 191.589462,371.136139 
	C187.809860,373.154572 183.992279,375.101868 180.191803,377.081238 
z"/>
<path fill="#143DC3" opacity="1.000000" stroke="none" 
	d="
M33.188103,454.940063 
	C27.413950,453.946289 24.213663,449.967957 23.060911,444.777374 
	C22.148897,440.670746 22.452383,436.267029 22.432175,431.994263 
	C22.350523,414.730682 22.352545,397.466705 22.023293,379.507446 
	C19.535149,378.491547 17.239672,378.474976 15.195233,377.750275 
	C13.681839,377.213745 12.043874,375.987030 11.341545,374.616699 
	C10.954988,373.862488 12.386704,372.176361 13.217854,370.839325 
	C13.709201,370.604370 13.911557,370.378052 14.484911,370.076965 
	C17.279539,370.035858 19.633389,370.007080 22.244438,369.997192 
	C22.673326,370.025238 22.845013,370.034393 22.962891,370.367828 
	C22.692268,372.043427 21.797003,373.938782 22.371641,374.655426 
	C25.486618,378.540070 25.381105,382.667603 24.077343,387.516846 
	C24.370079,403.583221 24.355328,419.202301 25.146845,434.780457 
	C25.462690,440.996643 26.016361,447.751282 32.162472,452.248322 
	C32.890934,453.016113 33.461689,453.536560 33.941238,454.245911 
	C33.664577,454.649323 33.443935,454.817749 33.188103,454.940063 
z"/>
<path fill="#243EA5" opacity="1.000000" stroke="none" 
	d="
M23.016695,370.043518 
	C22.845013,370.034393 22.673326,370.025238 22.252480,369.762787 
	C22.020233,369.196533 22.054968,368.885590 22.107523,368.576660 
	C22.254875,362.268402 22.418621,355.960480 22.542984,349.651764 
	C22.609808,346.261871 23.453779,343.399414 27.086367,342.179108 
	C32.648098,340.310822 34.341976,341.461914 34.350029,347.268158 
	C34.357864,352.919617 34.440289,358.577850 34.194828,364.220276 
	C34.040722,367.762726 35.481731,368.910370 38.856716,368.819977 
	C44.800106,368.660767 50.750832,368.775452 56.961288,368.775452 
	C56.961288,372.074951 56.961288,375.013428 56.961288,379.032837 
	C50.521038,379.032837 44.110680,379.032837 36.877213,378.974792 
	C35.369053,378.944122 34.684010,378.971466 33.992989,378.990936 
	C33.987019,378.983093 33.975018,378.967255 34.090904,378.716919 
	C34.480492,377.988373 34.754192,377.510162 35.355881,377.027588 
	C36.121220,377.021973 36.558567,377.020752 37.180809,377.264648 
	C38.251278,377.359711 39.136856,377.209595 40.349922,377.047668 
	C41.113350,377.006531 41.549294,376.977203 42.436302,376.968414 
	C45.343536,376.914520 47.976398,377.361359 50.202087,376.606934 
	C52.112549,375.959351 53.557514,373.938477 55.208328,372.524902 
	C54.873383,372.022888 54.538437,371.520905 54.203491,371.018890 
	C49.467262,371.018890 44.731030,371.018890 39.583492,371.010620 
	C32.700684,370.559448 32.019398,369.852081 32.027390,363.606171 
	C32.034420,358.110840 32.099766,352.614105 31.981951,347.121399 
	C31.960833,346.136719 31.395214,344.624359 30.682880,344.334717 
	C29.852938,343.997253 28.137819,344.387909 27.600391,345.079407 
	C26.458029,346.549286 25.291250,348.361298 25.102903,350.135864 
	C24.718298,353.759460 25.220387,357.473541 24.888569,361.107544 
	C24.613684,364.118073 23.666191,367.067200 23.016695,370.043518 
z"/>
<path fill="#304AAA" opacity="1.000000" stroke="none" 
	d="
M33.523640,455.051208 
	C33.443935,454.817749 33.664577,454.649323 34.387650,454.234650 
	C39.186138,454.020081 43.447006,454.002930 47.707893,453.992096 
	C52.091793,453.980927 54.578716,452.143402 54.084682,447.419373 
	C48.693249,446.970520 43.319588,446.523102 37.606461,446.043091 
	C36.173336,445.348938 35.079670,444.687378 33.897579,443.788879 
	C33.554272,443.337708 33.299393,443.123505 33.048771,442.685852 
	C33.053032,442.462402 33.024525,442.016327 33.035755,441.759155 
	C33.040260,441.330444 33.033531,441.158936 33.035606,440.590881 
	C33.083813,439.139435 33.123222,438.084534 33.405956,436.713562 
	C33.837872,434.486145 34.026463,432.574738 34.215054,430.663361 
	C34.474377,433.289795 35.040028,435.929626 34.926140,438.539764 
	C34.720062,443.262848 37.418335,444.640106 41.376621,444.719116 
	C45.992664,444.811218 50.611950,444.740570 54.945202,444.740570 
	C55.411461,445.420654 55.727417,445.673157 55.758224,445.956635 
	C56.754192,455.121521 56.750210,455.141785 47.642109,455.203613 
	C43.048103,455.234772 38.453506,455.178894 33.523640,455.051208 
z"/>
<path fill="#304AAA" opacity="1.000000" stroke="none" 
	d="
M87.976616,491.121613 
	C88.012070,491.367188 88.047531,491.612732 88.147125,492.225220 
	C81.221085,492.382782 74.230896,492.173431 67.198280,491.962830 
	C68.065361,482.282654 69.159035,481.642731 76.943031,482.878693 
	C80.588638,483.457520 84.421799,482.855133 88.568756,482.812714 
	C87.601463,483.266815 86.235374,483.696259 84.120132,484.172028 
	C82.822777,484.251312 82.274582,484.284271 81.340103,484.212402 
	C79.309326,484.075623 77.664833,484.043701 75.635300,484.007660 
	C73.677132,485.073303 72.104012,486.143066 70.530884,487.212860 
	C71.986221,488.472260 73.329422,490.619324 74.918495,490.820038 
	C79.215340,491.362823 83.616707,491.078064 87.976616,491.121613 
z"/>
<path fill="#304AAA" opacity="1.000000" stroke="none" 
	d="
M589.108948,435.614624 
	C588.666992,435.113861 588.050720,434.228699 588.050537,433.343414 
	C588.047668,419.161652 588.123474,404.979858 588.405884,390.466492 
	C588.801331,402.023163 588.976074,413.911316 589.140442,425.799652 
	C589.183899,428.942932 589.195129,432.086700 589.108948,435.614624 
z"/>
<path fill="#243EA5" opacity="1.000000" stroke="none" 
	d="
M34.313370,430.348511 
	C34.026463,432.574738 33.837872,434.486145 33.345192,436.244385 
	C32.976379,428.742004 32.911659,421.392761 32.894585,413.638916 
	C32.651787,411.480591 32.361343,409.726898 32.066933,407.508179 
	C32.020710,402.039581 31.978456,397.036011 31.966082,391.567139 
	C32.020657,387.078918 32.045353,383.056000 32.387390,379.023285 
	C33.128162,378.998077 33.551590,378.982666 33.975018,378.967255 
	C33.975018,378.967255 33.987019,378.983093 33.975246,379.459473 
	C34.017677,395.772583 34.071884,411.609283 34.126087,427.445984 
	C34.221287,428.308533 34.316490,429.171082 34.313370,430.348511 
z"/>
<path fill="#243EA5" opacity="1.000000" stroke="none" 
	d="
M802.046387,371.533264 
	C801.791931,372.000031 801.612854,372.003632 801.178040,371.533264 
	C800.929871,356.596924 800.942932,342.134552 800.942688,327.672211 
	C800.942566,319.962006 799.457520,318.888031 791.996155,321.155121 
	C791.646240,320.542725 791.296326,319.930298 790.899048,318.954681 
	C793.957764,318.437592 797.063965,318.283691 800.711792,318.386108 
	C801.446960,318.827881 801.675537,318.944733 801.939148,318.993042 
	C802.043640,325.919403 802.221008,332.845612 802.235535,339.772156 
	C802.257446,350.204681 802.165405,360.637421 802.046387,371.533264 
z"/>
<path fill="#243EA5" opacity="1.000000" stroke="none" 
	d="
M726.444153,418.594482 
	C726.003418,418.153809 726.004578,417.837799 725.988037,417.285645 
	C736.064026,416.717743 746.145203,416.385895 756.619141,416.352844 
	C756.999573,417.228333 756.987122,417.804962 756.974670,418.381622 
	C746.949341,418.494141 736.924011,418.606689 726.444153,418.594482 
z"/>
<path fill="#2A42A1" opacity="1.000000" stroke="none" 
	d="
M538.983704,395.965454 
	C539.468079,395.715118 539.952393,395.464752 540.685791,395.100220 
	C540.666321,404.588531 540.277100,414.189606 540.163452,423.793915 
	C540.053467,433.090118 540.321289,442.391235 540.169067,451.686005 
	C540.147522,452.998260 538.684326,454.286926 537.504150,455.518738 
	C537.604675,453.463409 538.089355,451.475861 538.302063,448.841370 
	C538.005493,447.125092 537.980957,446.055756 538.128418,444.606445 
	C538.451172,435.829193 538.601929,427.431946 538.808716,418.607788 
	C538.869812,416.458038 538.874878,414.735199 538.901245,412.757050 
	C538.907593,412.331573 538.892761,412.161407 538.892822,411.622742 
	C538.895508,410.516968 538.883362,409.779755 538.910034,408.620117 
	C538.916870,406.786407 538.884949,405.375122 538.877075,403.528015 
	C538.900391,401.053009 538.899597,399.013885 538.919800,396.747986 
	C538.940857,396.521179 538.925903,396.065918 538.937744,396.039307 
	C538.949646,396.012726 538.983704,395.965454 538.983704,395.965454 
z"/>
<path fill="#2A42A1" opacity="1.000000" stroke="none" 
	d="
M21.720695,368.618713 
	C22.054968,368.885590 22.020233,369.196533 21.995277,369.743896 
	C19.633389,370.007080 17.279539,370.035858 14.259731,370.138947 
	C13.312009,370.374451 13.113633,370.606812 12.998646,370.910370 
	C12.386704,372.176361 10.954988,373.862488 11.341545,374.616699 
	C12.043874,375.987030 13.681839,377.213745 15.195233,377.750275 
	C17.239672,378.474976 19.535149,378.491547 21.843624,379.147217 
	C18.019135,379.228424 14.073927,378.974396 9.901294,378.705719 
	C9.901294,375.906586 9.615136,373.252319 10.060095,370.726868 
	C10.211117,369.869690 12.155836,368.888062 13.370592,368.749451 
	C15.994237,368.450104 18.675926,368.659515 21.720695,368.618713 
z"/>
<path fill="#304AAA" opacity="1.000000" stroke="none" 
	d="
M34.297234,427.035522 
	C34.071884,411.609283 34.017677,395.772583 33.981216,379.467346 
	C34.684010,378.971466 35.369053,378.944122 36.395691,378.913452 
	C35.987995,380.534302 34.608528,382.150665 34.588184,383.783905 
	C34.410328,398.062592 34.475399,412.344269 34.297234,427.035522 
z"/>
<path fill="#243EA5" opacity="1.000000" stroke="none" 
	d="
M141.661011,371.764832 
	C140.769455,372.206146 140.106369,372.248444 138.966705,371.870667 
	C135.993439,371.316406 133.496735,371.182190 131.000061,371.047974 
	C130.729279,370.734039 130.458496,370.420105 129.901505,369.975342 
	C132.522018,365.456848 136.786194,368.875397 140.336960,368.138397 
	C140.619019,368.079865 141.361130,370.237915 141.661011,371.764832 
z"/>
<path fill="#2A42A1" opacity="1.000000" stroke="none" 
	d="
M757.356873,418.508850 
	C756.987122,417.804962 756.999573,417.228333 757.018188,416.365448 
	C757.763977,416.048187 758.503601,416.017181 759.942810,415.945831 
	C761.064331,415.241089 761.486267,414.576691 761.908203,413.912262 
	C761.936707,413.187347 761.965210,412.462402 762.270691,411.367249 
	C762.717529,410.991516 762.887451,410.986053 763.057373,410.980621 
	C763.870056,418.010956 763.724304,418.220734 757.356873,418.508850 
z"/>
<path fill="#304AAA" opacity="1.000000" stroke="none" 
	d="
M93.474472,491.178711 
	C93.557999,491.048492 93.756477,491.001709 94.044685,490.910400 
	C94.121117,491.167603 93.939453,491.299683 93.474472,491.178711 
z"/>
<path fill="#2A46B1" opacity="1.000000" stroke="none" 
	d="
M206.521606,454.972534 
	C206.601944,455.016479 206.491241,454.992493 206.479828,454.963623 
	C206.468414,454.934723 206.441284,454.928558 206.521606,454.972534 
z"/>
<path fill="#304AAA" opacity="1.000000" stroke="none" 
	d="
M801.903687,318.753723 
	C801.675537,318.944733 801.446960,318.827881 801.149292,318.478394 
	C801.392578,318.079834 801.666931,318.146545 801.903687,318.753723 
z"/>
<path fill="#304AAA" opacity="1.000000" stroke="none" 
	d="
M90.903442,492.173096 
	C90.785812,492.085632 91.242905,491.995605 91.472427,491.956573 
	C91.584183,492.213287 91.357224,492.327606 90.903442,492.173096 
z"/>
<path fill="#243EA5" opacity="1.000000" stroke="none" 
	d="
M763.073975,410.718628 
	C762.887451,410.986053 762.717529,410.991516 762.293213,411.005188 
	C762.087097,410.676208 762.244446,410.401550 762.723450,410.072144 
	C762.987549,410.122162 763.039062,410.289398 763.073975,410.718628 
z"/>
<path fill="#304AAA" opacity="1.000000" stroke="none" 
	d="
M488.314362,418.448975 
	C488.273499,418.178955 488.455353,418.121124 488.756165,418.229858 
	C488.842224,418.284637 488.504150,418.549377 488.314362,418.448975 
z"/>
<path fill="#2A42A1" opacity="1.000000" stroke="none" 
	d="
M716.332886,405.974091 
	C712.092712,405.151428 709.414307,403.437958 711.020508,398.951599 
	C712.826904,393.906281 714.289856,388.614746 716.973267,384.061523 
	C718.210022,381.963013 721.904053,380.527802 724.640808,380.229187 
	C739.156067,378.645264 746.843140,386.200073 744.736694,400.917023 
	C744.509460,402.504700 741.106079,404.567474 739.005005,404.789154 
	C731.629395,405.567474 724.179016,405.637421 716.332886,405.974091 
M714.369873,402.218536 
	C721.791077,402.283295 729.212463,402.418579 736.633362,402.392303 
	C743.553101,402.367798 743.719910,402.096558 742.663452,395.290680 
	C742.535950,394.469299 742.472473,393.622894 742.222534,392.838074 
	C740.533264,387.533600 737.016052,384.188995 731.644958,382.551239 
	C726.160217,380.878784 721.596924,382.939636 719.038635,387.175659 
	C716.502441,391.375031 715.674316,396.605988 714.369873,402.218536 
z"/>
<path fill="#243EA5" opacity="1.000000" stroke="none" 
	d="
M762.012878,403.386536 
	C762.340820,404.425049 762.656128,405.850708 762.945740,407.668823 
	C762.613464,406.632080 762.306885,405.202911 762.012878,403.386536 
z"/>
<path fill="#243EA5" opacity="1.000000" stroke="none" 
	d="
M761.602234,413.981476 
	C761.486267,414.576691 761.064331,415.241089 760.312988,415.928467 
	C760.421143,415.317841 760.858704,414.684265 761.602234,413.981476 
z"/>
<path fill="#143DC3" opacity="1.000000" stroke="none" 
	d="
M364.042480,384.018860 
	C356.988708,393.498016 365.443909,398.994293 374.139984,401.942749 
	C383.843658,405.232819 393.313232,408.811066 400.360565,416.810974 
	C406.013641,423.228210 404.876923,438.681854 398.536224,444.778534 
	C388.431671,454.494354 376.442627,456.648254 363.217224,454.196960 
	C358.747498,453.368500 354.331116,452.200867 349.942688,450.997437 
	C343.431091,449.211792 340.934326,443.620087 344.415314,437.898956 
	C345.046387,436.861755 348.151703,436.553101 349.775940,437.039490 
	C355.137512,438.644958 360.236816,441.174500 365.634918,442.598206 
	C373.571503,444.691498 381.442535,441.067047 384.657715,434.514526 
	C386.777161,430.195190 385.858185,427.125763 381.657623,424.774384 
	C373.387573,420.144989 364.965210,415.768066 356.882904,410.832947 
	C353.730988,408.908386 350.957275,406.050476 348.648682,403.116211 
	C340.984955,393.375580 342.974518,384.336853 353.147278,376.304962 
	C356.328491,376.196838 358.931580,376.317169 361.534668,376.437531 
	C359.687592,378.498749 357.507690,379.486511 355.555206,380.809784 
	C353.179504,382.419922 351.626587,384.369110 353.842072,386.069244 
	C357.932770,385.246979 360.987610,384.632904 364.042480,384.018860 
z"/>
<path fill="#133CCB" opacity="1.000000" stroke="none" 
	d="
M364.350281,383.858032 
	C360.987610,384.632904 357.932770,385.246979 353.842072,386.069244 
	C351.626587,384.369110 353.179504,382.419922 355.555206,380.809784 
	C357.507690,379.486511 359.687592,378.498749 361.534668,376.437531 
	C358.931580,376.317169 356.328491,376.196838 353.356079,376.041290 
	C357.672058,370.742950 363.843506,368.355011 370.587677,368.089539 
	C380.374847,367.704376 390.047943,368.646057 399.183899,372.819672 
	C404.058533,375.046570 402.014221,378.174103 400.426086,380.985596 
	C398.926849,383.639771 397.827148,387.663788 393.095581,384.755890 
	C386.488708,380.695557 378.910370,380.371735 371.501770,380.227814 
	C369.243896,380.183960 366.940613,382.475342 364.350281,383.858032 
z"/>
<path fill="#143DC3" opacity="1.000000" stroke="none" 
	d="
M650.002869,381.933594 
	C647.218689,381.622833 644.422913,381.391083 641.652893,380.983734 
	C636.887634,380.282990 633.983887,383.489014 632.032410,386.695160 
	C630.974915,388.432465 631.588684,392.400970 632.969116,394.189117 
	C637.849426,400.510986 645.569336,402.213257 652.611694,405.023407 
	C660.979004,408.362244 668.680725,412.389221 672.193237,421.813538 
	C676.917969,434.490326 669.279785,447.551147 658.195862,452.068451 
	C647.730774,456.333466 637.427307,455.070679 627.026367,453.770538 
	C622.992554,453.266327 619.072876,451.031311 615.346619,449.109009 
	C611.478394,447.113464 611.001343,439.640320 614.601013,437.139862 
	C615.694031,436.380646 618.101196,436.633423 619.473999,437.305756 
	C626.241577,440.620361 633.195435,443.029999 640.823792,442.977936 
	C647.436401,442.932800 653.128723,438.564575 654.297729,432.141907 
	C654.618225,430.380890 654.032715,427.586121 652.794434,426.576996 
	C649.401184,423.811829 645.707275,420.980377 641.647949,419.557373 
	C632.874268,416.481750 625.429260,411.534912 618.819763,405.263428 
	C611.903137,398.700592 611.844788,386.608429 618.676392,379.582855 
	C618.997498,381.042023 618.997742,382.205719 619.000122,383.369415 
	C619.014709,390.568634 619.255493,390.705688 625.346863,387.468018 
	C626.326294,386.947449 627.497437,386.787567 628.442749,386.502350 
	C628.442749,385.000702 628.442749,383.749481 628.442749,383.525848 
	C630.974670,381.823730 632.758667,380.423035 634.731750,379.380035 
	C635.769775,378.831268 637.164551,378.639832 638.352112,378.756531 
	C640.946289,379.011444 643.544739,379.429749 646.074402,380.053101 
	C647.454529,380.393219 648.697876,381.288635 650.002869,381.933594 
z"/>
<path fill="#133CCB" opacity="1.000000" stroke="none" 
	d="
M650.419067,381.956970 
	C648.697876,381.288635 647.454529,380.393219 646.074402,380.053101 
	C643.544739,379.429749 640.946289,379.011444 638.352112,378.756531 
	C637.164551,378.639832 635.769775,378.831268 634.731750,379.380035 
	C632.758667,380.423035 630.974670,381.823730 628.442749,383.525848 
	C628.442749,383.749481 628.442749,385.000702 628.442749,386.502350 
	C627.497437,386.787567 626.326294,386.947449 625.346863,387.468018 
	C619.255493,390.705688 619.014709,390.568634 619.000122,383.369415 
	C618.997742,382.205719 618.997498,381.042023 618.990601,379.422791 
	C627.962341,369.220245 638.934631,365.929413 651.835205,368.745789 
	C656.822327,369.834503 661.828674,370.841095 666.842712,371.798828 
	C671.429565,372.674988 671.809021,375.478516 670.397278,379.186340 
	C669.866882,380.579559 669.284912,381.953949 668.785156,383.357849 
	C667.855164,385.970123 666.296814,386.294189 663.711487,385.431030 
	C659.504395,384.026337 655.135681,383.105408 650.419067,381.956970 
z"/>
<path fill="#0F3BD7" opacity="1.000000" stroke="none" 
	d="
M263.878479,416.955505 
	C264.603912,422.687317 264.247162,428.854401 266.332550,434.039246 
	C268.858582,440.319611 274.270569,445.242767 281.115082,446.819000 
	C290.709076,449.028381 300.083710,446.898041 308.978363,442.956360 
	C312.084167,441.580017 314.318481,441.683380 315.778687,444.893402 
	C315.554321,445.429321 315.510681,445.898346 315.291992,446.003571 
	C304.131012,451.374023 292.809296,456.529510 279.980896,454.427185 
	C267.660065,452.408020 262.201447,442.988129 257.956573,432.583252 
	C257.582916,431.667297 257.384308,430.679932 257.472351,429.341553 
	C258.892181,426.533325 259.860016,424.067932 261.024719,421.699341 
	C261.836121,420.049286 262.917633,418.532074 263.878479,416.955505 
z"/>
<path fill="#1141DA" opacity="1.000000" stroke="none" 
	d="
M255.996933,401.000000 
	C256.985901,388.511536 267.869324,371.858673 279.610291,369.527435 
	C295.683563,366.336029 313.386383,374.139771 316.674622,391.581848 
	C315.556793,392.051056 314.687927,392.028290 313.953979,392.331787 
	C312.918213,392.760101 311.982300,393.429810 310.949982,393.634399 
	C310.184662,391.422119 309.635437,389.487976 308.732056,387.736542 
	C305.623322,381.709442 301.586456,375.990601 294.489838,375.208344 
	C283.382416,373.983917 272.120667,375.364288 265.753540,389.878448 
	C261.558044,388.557892 259.937103,389.600952 259.632019,394.008453 
	C259.470978,396.335297 261.027588,400.747192 255.996933,401.000000 
z"/>
<path fill="#0B43E5" opacity="1.000000" stroke="none" 
	d="
M255.936020,401.414001 
	C261.027588,400.747192 259.470978,396.335297 259.632019,394.008453 
	C259.937103,389.600952 261.558044,388.557892 265.732697,390.209290 
	C266.010895,391.113922 265.979126,391.554688 265.626648,392.042450 
	C264.878693,393.395691 264.451447,394.701904 264.027039,396.462585 
	C264.013519,399.953918 263.997162,402.990814 264.078491,406.246521 
	C264.366058,406.739380 264.621155,406.922638 264.956482,407.021912 
	C264.971497,407.028656 264.984650,407.058868 265.085815,407.273987 
	C265.380219,407.755249 265.632965,407.939819 266.072937,408.252686 
	C266.421753,408.714172 266.689026,408.899200 267.006866,409.381165 
	C267.341187,411.131256 267.671112,412.517822 268.001038,413.904388 
	C266.678101,414.688446 265.355164,415.472534 263.955383,416.606079 
	C262.917633,418.532074 261.836121,420.049286 261.024719,421.699341 
	C259.860016,424.067932 258.892181,426.533325 257.455353,428.960602 
	C254.747025,420.003326 253.946579,410.975769 255.936020,401.414001 
z"/>
<path fill="#0E40EA" opacity="1.000000" stroke="none" 
	d="
M268.468933,413.936218 
	C267.671112,412.517822 267.341187,411.131256 267.373718,409.353363 
	C269.158081,408.643799 270.579956,408.325562 272.470215,408.018860 
	C283.628326,408.018219 294.318115,408.006012 305.374420,407.965057 
	C307.161469,407.624634 308.581940,407.312927 310.106018,407.223389 
	C310.410492,407.718872 310.672607,407.906860 310.993103,408.379211 
	C310.657745,410.171234 310.325226,411.593567 309.605682,413.012329 
	C307.812439,413.345245 306.406219,413.681702 304.999969,414.018188 
	C292.978912,414.001465 280.957886,413.984741 268.468933,413.936218 
z"/>
<path fill="#0B43E5" opacity="1.000000" stroke="none" 
	d="
M309.992676,413.015869 
	C310.325226,411.593567 310.657745,410.171234 310.991699,408.121918 
	C310.984161,407.323639 310.975250,407.152405 310.986511,406.652740 
	C311.059692,405.888794 311.112701,405.453339 311.442749,404.968811 
	C312.010406,404.598785 312.300964,404.277771 312.591553,403.956787 
	C312.114471,403.632172 311.637421,403.307526 311.117371,402.535889 
	C311.050812,399.391388 311.027252,396.693878 311.003693,393.996338 
	C311.982300,393.429810 312.918213,392.760101 313.953979,392.331787 
	C314.687927,392.028290 315.556793,392.051056 316.672302,391.967255 
	C317.327087,394.393677 317.674957,396.781067 317.763855,399.774719 
	C317.976868,401.259399 318.448883,402.137817 318.920868,403.016205 
	C318.872986,406.966187 319.934784,411.229614 315.272125,413.814697 
	C314.145660,413.767700 313.557556,413.934265 312.969482,414.100861 
	C312.223633,414.083374 311.477753,414.065887 310.362244,413.786377 
	C309.992584,413.354858 309.992645,413.185364 309.992676,413.015869 
z"/>
<path fill="#1141DA" opacity="1.000000" stroke="none" 
	d="
M318.945007,402.678101 
	C318.448883,402.137817 317.976868,401.259399 317.762512,400.186218 
	C318.336456,400.774231 318.652802,401.557098 318.945007,402.678101 
z"/>
<path fill="#1141DA" opacity="1.000000" stroke="none" 
	d="
M309.605682,413.012329 
	C309.992645,413.185364 309.992584,413.354858 309.989258,413.778961 
	C308.601166,414.034515 307.216431,414.035461 305.415833,414.027283 
	C306.406219,413.681702 307.812439,413.345245 309.605682,413.012329 
z"/>
<path fill="#1141DA" opacity="1.000000" stroke="none" 
	d="
M313.130219,414.307495 
	C313.557556,413.934265 314.145660,413.767700 314.880829,413.844543 
	C314.448944,414.230011 313.869934,414.372070 313.130219,414.307495 
z"/>
<path fill="#123CC5" opacity="1.000000" stroke="none" 
	d="
M430.001221,440.024200 
	C429.339355,438.251068 428.677490,436.477905 427.989624,433.971802 
	C426.988464,431.814880 426.013306,430.390900 425.038116,428.966949 
	C424.359375,421.485229 423.142303,414.005707 423.112091,406.521362 
	C423.045685,390.084808 431.405334,378.278534 445.290924,370.434937 
	C455.162598,364.858673 470.197632,367.585236 479.311676,374.584137 
	C491.710663,384.105652 493.326874,396.907837 491.810516,410.920959 
	C491.471558,414.053650 490.082214,416.147095 485.977081,416.145660 
	C473.104401,416.141113 460.232025,416.696167 447.358551,416.989899 
	C441.485443,417.123932 440.038361,419.502197 442.443268,424.928925 
	C443.877808,428.165985 444.515869,431.879028 446.450287,434.744751 
	C450.021332,440.035187 455.776062,442.403717 461.872864,441.799500 
	C468.190460,441.173370 474.346680,439.019226 480.614960,437.735962 
	C482.568298,437.336121 486.136261,436.968353 486.429565,437.660431 
	C487.773865,440.832428 491.607117,444.896851 486.620209,447.662170 
	C481.483826,450.510406 475.836823,452.630951 470.188416,454.316498 
	C462.125702,456.722595 453.864777,457.025482 445.296570,453.824768 
	C443.587494,452.594421 442.288422,451.843048 440.989349,451.091675 
	C440.989349,451.091675 440.949005,451.053375 440.787842,450.785828 
	C440.092163,450.362030 439.557617,450.205750 439.023102,450.049438 
	C439.023102,450.049438 438.985016,450.015320 438.874634,449.784882 
	C438.575531,449.289062 438.322601,449.119293 438.005493,449.045197 
	C438.005493,449.045197 437.985413,449.016632 437.929565,448.668823 
	C436.925598,447.883789 435.977478,447.446594 435.029327,447.009399 
	C435.029327,447.009399 434.983246,446.512329 435.207031,446.078033 
	C434.627319,445.102325 433.823883,444.560944 433.020416,444.019531 
	C432.822906,443.750854 432.625397,443.482178 432.203125,442.744751 
	C431.319305,441.525360 430.660278,440.774780 430.001221,440.024200 
M442.033752,397.420898 
	C440.614563,402.569000 441.835693,404.696991 447.173248,404.895325 
	C454.989136,405.185699 462.835083,405.194061 470.642090,404.802185 
	C472.459625,404.710968 475.298309,402.841095 475.745972,401.249329 
	C478.249634,392.346985 472.398682,382.507263 463.637238,380.433533 
	C457.006592,378.864197 450.601166,379.500641 446.546783,385.672119 
	C444.435577,388.885712 443.635437,392.960632 442.033752,397.420898 
z"/>
<path fill="#243EA5" opacity="1.000000" stroke="none" 
	d="
M425.024841,429.321899 
	C426.013306,430.390900 426.988464,431.814880 427.936401,433.617432 
	C426.943268,432.556305 425.977386,431.116577 425.024841,429.321899 
z"/>
<path fill="#243EA5" opacity="1.000000" stroke="none" 
	d="
M441.043549,451.419281 
	C442.288422,451.843048 443.587494,452.594421 444.934937,453.676575 
	C443.688110,453.253845 442.392944,452.500336 441.043549,451.419281 
z"/>
<path fill="#243EA5" opacity="1.000000" stroke="none" 
	d="
M433.050842,444.335358 
	C433.823883,444.560944 434.627319,445.102325 435.184662,445.829468 
	C434.319458,445.560516 433.700348,445.105835 433.050842,444.335358 
z"/>
<path fill="#243EA5" opacity="1.000000" stroke="none" 
	d="
M435.157623,447.299255 
	C435.977478,447.446594 436.925598,447.883789 437.912659,448.664246 
	C437.063080,448.534698 436.174500,448.061890 435.157623,447.299255 
z"/>
<path fill="#243EA5" opacity="1.000000" stroke="none" 
	d="
M430.023743,440.342133 
	C430.660278,440.774780 431.319305,441.525360 431.980408,442.624817 
	C431.337097,442.202454 430.691650,441.431244 430.023743,440.342133 
z"/>
<path fill="#243EA5" opacity="1.000000" stroke="none" 
	d="
M439.179443,450.283569 
	C439.557617,450.205750 440.092163,450.362030 440.768066,450.766296 
	C440.384918,450.848724 439.860352,450.683167 439.179443,450.283569 
z"/>
<path fill="#243EA5" opacity="1.000000" stroke="none" 
	d="
M438.106293,449.252014 
	C438.322601,449.119293 438.575531,449.289062 438.855652,449.767761 
	C438.640320,449.892059 438.393677,449.717987 438.106293,449.252014 
z"/>
<path fill="#0B43E5" opacity="1.000000" stroke="none" 
	d="
M97.991516,448.995087 
	C92.824547,433.643524 87.585945,418.315582 82.518639,402.931183 
	C79.682358,394.320221 77.098488,385.625275 74.467812,376.947876 
	C73.611519,374.123413 73.005341,371.216553 76.988068,370.159302 
	C80.652824,369.186462 81.478523,371.712677 82.329521,374.441315 
	C87.957108,392.485748 93.745461,410.480560 99.270691,428.556000 
	C101.141037,434.674744 102.400520,440.980225 103.942184,447.920044 
	C102.241699,453.467163 99.944305,448.344269 97.991516,448.995087 
z"/>
<path fill="#1141DA" opacity="1.000000" stroke="none" 
	d="
M81.726387,484.317230 
	C82.274582,484.284271 82.822777,484.251312 83.785843,484.255310 
	C88.426994,486.500977 91.760910,484.011078 94.464745,481.589417 
	C101.715240,475.095612 104.725204,466.218842 106.913925,457.049072 
	C107.078079,456.361298 106.501663,455.496704 106.387756,454.185028 
	C107.323120,452.414398 108.140244,451.173065 108.957367,449.931763 
	C110.769012,444.128174 112.580658,438.324615 114.994827,432.409851 
	C117.404182,432.867706 119.211021,433.436737 121.017868,434.005737 
	C118.029823,443.639191 115.310341,453.367523 111.952888,462.870483 
	C109.942322,468.561188 107.129417,474.001526 104.323265,479.369415 
	C101.031197,485.666779 94.721977,488.195374 88.335632,491.044464 
	C83.616707,491.078064 79.215340,491.362823 74.918495,490.820038 
	C73.329422,490.619324 71.986221,488.472260 70.530884,487.212860 
	C72.104012,486.143066 73.677132,485.073303 75.870850,484.270660 
	C78.236420,484.464264 79.981407,484.390747 81.726387,484.317230 
z"/>
<path fill="#0E40EA" opacity="1.000000" stroke="none" 
	d="
M121.028183,433.618896 
	C119.211021,433.436737 117.404182,432.867706 115.270950,432.134888 
	C117.576881,422.580933 120.288857,413.212189 122.817772,403.794250 
	C125.077431,395.379028 127.155861,386.914734 129.267670,378.460480 
	C129.821075,376.245056 130.201263,373.986389 130.830521,371.397766 
	C133.496735,371.182190 135.993439,371.316406 138.762482,371.752869 
	C135.064911,385.460724 131.094986,398.866333 126.744568,412.680115 
	C126.248482,414.062103 126.132889,415.035919 126.017288,416.009735 
	C125.863388,416.871063 125.709480,417.732422 125.127899,418.883301 
	C124.628807,419.276794 124.475052,419.441467 124.499535,419.474701 
	C124.641640,419.667358 124.825699,419.829102 124.995560,420.001282 
	C124.354286,422.415894 123.713005,424.830475 122.686981,427.666290 
	C121.903862,428.771149 121.505478,429.454803 121.107086,430.138428 
	C121.084213,431.169647 121.061348,432.200867 121.028183,433.618896 
z"/>
<path fill="#133CCB" opacity="1.000000" stroke="none" 
	d="
M108.611900,449.943726 
	C108.140244,451.173065 107.323120,452.414398 106.229004,453.837830 
	C103.322716,452.588379 100.693413,451.156830 98.027809,449.360199 
	C99.944305,448.344269 102.241699,453.467163 103.995361,448.296448 
	C105.452492,448.620636 106.859467,449.288147 108.611900,449.943726 
z"/>
<path fill="#123DC6" opacity="1.000000" stroke="none" 
	d="
M538.879944,413.012360 
	C538.874878,414.735199 538.869812,416.458038 538.450317,418.589447 
	C536.868103,417.991943 534.907898,417.141357 534.674438,415.951874 
	C533.822815,411.613770 533.082458,407.153168 533.170044,402.756104 
	C533.286987,396.888428 534.573547,391.038452 534.597839,385.177704 
	C534.606140,383.187347 532.534973,380.958527 530.903748,379.359161 
	C530.515137,378.978180 527.912109,380.472137 526.618774,381.478027 
	C523.990295,383.522308 521.560425,385.822083 519.048828,388.016541 
	C519.359253,382.727020 519.535400,377.424957 520.025574,372.152100 
	C520.373230,368.413086 525.247498,366.623901 528.503052,369.087189 
	C531.257812,371.171600 533.755859,373.604919 536.295593,375.961304 
	C539.655212,379.078522 542.414062,378.156158 546.257141,376.031342 
	C552.364990,372.654358 559.007874,369.531525 565.788208,368.293854 
	C572.039795,367.152679 576.622314,372.301422 580.499695,376.906921 
	C582.742432,379.570770 584.572388,382.582184 586.771729,385.708954 
	C586.964905,399.302124 587.425232,412.644684 586.801147,425.936340 
	C586.470093,432.987823 586.893311,439.580994 588.733093,446.405884 
	C589.225098,448.230682 585.552551,452.558319 582.948975,453.572021 
	C575.874939,456.326385 569.324646,451.497620 569.037048,443.964142 
	C568.587402,432.186920 568.226013,420.403412 568.072876,408.619354 
	C568.017273,404.335693 568.903015,400.045105 568.943604,395.753784 
	C569.029114,386.702240 562.927368,381.555847 554.132690,384.376617 
	C548.275879,386.255066 540.681946,387.007050 538.986694,395.597839 
	C538.983704,395.965454 538.949646,396.012726 538.785645,396.111755 
	C538.566162,396.308105 538.439758,396.453217 538.467590,396.494507 
	C538.586609,396.671295 538.750977,396.817444 538.898804,396.974762 
	C538.899597,399.013885 538.900391,401.053009 538.542236,403.621796 
	C536.417053,406.062469 536.162109,407.760925 538.871216,409.042542 
	C538.883362,409.779755 538.895508,410.516968 538.751282,411.722351 
	C538.689941,412.464478 538.784912,412.738403 538.879944,413.012360 
z"/>
<path fill="#1141CD" opacity="1.000000" stroke="none" 
	d="
M519.031860,388.477692 
	C521.560425,385.822083 523.990295,383.522308 526.618774,381.478027 
	C527.912109,380.472137 530.515137,378.978180 530.903748,379.359161 
	C532.534973,380.958527 534.606140,383.187347 534.597839,385.177704 
	C534.573547,391.038452 533.286987,396.888428 533.170044,402.756104 
	C533.082458,407.153168 533.822815,411.613770 534.674438,415.951874 
	C534.907898,417.141357 536.868103,417.991943 538.394287,419.016357 
	C538.601929,427.431946 538.451172,435.829193 537.710510,444.610565 
	C535.357117,445.253601 533.464355,445.189056 531.854614,445.832550 
	C527.186890,447.698395 525.047791,446.793182 524.040833,442.044250 
	C523.599304,439.961823 523.740601,437.653442 522.872498,435.795715 
	C522.155029,434.260468 520.342041,433.237183 519.014465,431.987061 
	C519.014160,425.307831 519.013794,418.628601 519.399170,411.395691 
	C520.500183,408.155457 521.357727,405.491241 521.786194,402.759705 
	C521.855164,402.320374 520.009766,401.580750 519.049316,400.979980 
	C519.037842,396.966278 519.026367,392.952545 519.031860,388.477692 
M529.275024,383.880768 
	C529.467407,384.424774 529.659729,384.968781 529.852112,385.512787 
	C530.131042,385.385254 530.409912,385.257751 530.688843,385.130249 
	C530.362732,384.570312 530.036560,384.010345 529.275024,383.880768 
z"/>
<path fill="#123DC6" opacity="1.000000" stroke="none" 
	d="
M519.001831,432.456696 
	C520.342041,433.237183 522.155029,434.260468 522.872498,435.795715 
	C523.740601,437.653442 523.599304,439.961823 524.040833,442.044250 
	C525.047791,446.793182 527.186890,447.698395 531.854614,445.832550 
	C533.464355,445.189056 535.357117,445.253601 537.538513,444.990601 
	C537.980957,446.055756 538.005493,447.125092 538.052734,448.594604 
	C538.075439,448.994781 537.580139,449.057312 537.163757,448.843109 
	C536.330017,448.650421 535.912659,448.671906 535.495300,448.693420 
	C536.008484,449.128845 536.521667,449.564301 537.034851,449.999756 
	C535.798706,454.005981 531.335083,455.255310 523.104858,454.003967 
	C519.737366,453.491974 518.913025,451.336548 518.957703,448.331757 
	C519.033997,443.197601 518.985352,438.061584 519.001831,432.456696 
z"/>
<path fill="#123DC6" opacity="1.000000" stroke="none" 
	d="
M519.027954,401.435944 
	C520.009766,401.580750 521.855164,402.320374 521.786194,402.759705 
	C521.357727,405.491241 520.500183,408.155457 519.413086,410.928253 
	C519.029663,407.973633 519.018127,404.932800 519.027954,401.435944 
z"/>
<path fill="#1141CD" opacity="1.000000" stroke="none" 
	d="
M537.045410,449.773987 
	C536.521667,449.564301 536.008484,449.128845 535.495300,448.693420 
	C535.912659,448.671906 536.330017,448.650421 536.914917,448.862915 
	C537.082520,449.096893 537.055969,449.548187 537.045410,449.773987 
z"/>
<path fill="#1141DA" opacity="1.000000" stroke="none" 
	d="
M212.024261,371.944885 
	C212.465256,371.968933 212.906250,371.993011 213.791626,372.255219 
	C214.440582,372.744202 214.699600,372.910095 215.013092,372.990997 
	C221.945816,376.933563 224.843109,383.986908 226.537109,390.847473 
	C229.899582,404.465210 230.557556,418.353577 225.915573,432.041748 
	C222.736389,441.416473 216.576904,447.852753 207.555313,451.709534 
	C206.202118,452.288025 204.921158,453.035553 203.294769,453.875336 
	C198.140213,453.603821 193.243103,453.460541 188.478760,452.590363 
	C186.194092,452.173065 184.018311,450.579437 182.044739,449.167114 
	C178.595322,446.698700 174.305222,447.675507 173.762161,451.811981 
	C173.032913,457.366394 173.141998,463.054596 173.201202,468.682098 
	C173.258636,474.142883 173.765381,479.597473 173.963562,485.058838 
	C174.081177,488.299957 172.425766,489.947266 169.117050,490.025208 
	C165.571411,490.108765 164.979370,487.737793 165.022339,485.073120 
	C165.244690,471.289032 165.735641,457.507019 165.779907,443.723145 
	C165.811325,433.939362 165.149658,424.155334 165.037613,414.368652 
	C164.894638,401.882233 164.846725,389.389587 165.140213,376.908600 
	C165.186554,374.938354 166.807816,372.021606 168.472107,371.285004 
	C171.595093,369.902802 173.019806,372.599243 174.027420,375.341187 
	C174.570572,376.819153 175.731628,378.070068 176.545502,379.918884 
	C176.315262,382.602509 176.153412,384.790710 175.839050,387.333984 
	C175.119049,390.066925 174.101776,392.437225 174.061508,394.824036 
	C173.881989,405.460693 173.976212,416.102081 173.982010,426.741760 
	C173.989395,440.307129 173.993744,440.307159 186.407440,445.164703 
	C199.775543,450.395782 213.513702,444.242889 217.786346,431.129364 
	C220.938385,421.455139 222.077652,411.551666 220.922440,401.447968 
	C219.864563,392.195465 216.657654,383.947327 209.002258,377.621643 
	C210.009872,375.472260 211.017059,373.708557 212.024261,371.944885 
z"/>
<path fill="#0F3BD7" opacity="1.000000" stroke="none" 
	d="
M211.799423,371.659119 
	C211.017059,373.708557 210.009872,375.472260 208.618713,377.569946 
	C204.617096,377.395782 200.957794,376.265198 197.390121,376.503937 
	C188.955170,377.068359 181.870102,380.920074 175.991577,386.978912 
	C176.153412,384.790710 176.315262,382.602509 176.743881,380.200867 
	C178.009033,379.235382 179.007431,378.483307 180.098816,377.406250 
	C183.992279,375.101868 187.809860,373.154572 191.589462,371.136139 
	C198.305786,367.549469 204.949783,368.200928 211.799423,371.659119 
z"/>
<path fill="#1040D8" opacity="1.000000" stroke="none" 
	d="
M791.984070,321.579102 
	C799.457520,318.888031 800.942566,319.962006 800.942688,327.672211 
	C800.942932,342.134552 800.929871,356.596924 800.909424,371.528442 
	C800.607117,373.916321 800.068665,375.834564 800.065552,377.753693 
	C800.014709,409.063934 800.054932,440.374329 799.973755,471.684448 
	C799.968994,473.512238 799.662354,476.043671 798.488281,476.970032 
	C797.262939,477.936890 794.633179,477.864502 792.973022,477.263733 
	C791.967102,476.899750 791.122620,474.683258 791.088013,473.277252 
	C790.907471,465.953888 791.013611,458.623535 791.013855,451.295593 
	C791.015076,412.657288 790.983582,374.018890 791.056824,335.380737 
	C791.065308,330.920929 791.652893,326.462250 791.984070,321.579102 
z"/>
<path fill="#1141DA" opacity="1.000000" stroke="none" 
	d="
M126.278503,415.802582 
	C126.132889,415.035919 126.248482,414.062103 126.691940,413.048035 
	C126.859787,413.870361 126.699753,414.732880 126.278503,415.802582 
z"/>
<path fill="#1141DA" opacity="1.000000" stroke="none" 
	d="
M121.414703,430.056305 
	C121.505478,429.454803 121.903862,428.771149 122.624962,428.034943 
	C122.539230,428.646332 122.130768,429.310242 121.414703,430.056305 
z"/>
<path fill="#1141DA" opacity="1.000000" stroke="none" 
	d="
M125.015770,419.758789 
	C124.825699,419.829102 124.641640,419.667358 124.499535,419.474701 
	C124.475052,419.441467 124.628807,419.276794 124.878448,419.101440 
	C125.056656,419.030060 125.035973,419.516296 125.015770,419.758789 
z"/>
<path fill="#0F3BD7" opacity="1.000000" stroke="none" 
	d="
M214.903259,372.782043 
	C214.699600,372.910095 214.440582,372.744202 214.120911,372.291565 
	C214.331055,372.148651 214.593613,372.309753 214.903259,372.782043 
z"/>
<path fill="#0E40EA" opacity="1.000000" stroke="none" 
	d="
M32.846939,414.043549 
	C32.911659,421.392761 32.976379,428.742004 33.101868,436.560425 
	C33.123222,438.084534 33.083813,439.139435 32.780579,440.610352 
	C32.246864,441.185944 31.976980,441.345551 31.707104,441.505127 
	C32.146252,441.675537 32.585392,441.845917 33.024529,442.016296 
	C33.024525,442.016327 33.053032,442.462402 33.130554,442.927917 
	C33.467388,443.604248 33.726696,443.815033 33.986004,444.025818 
	C35.079670,444.687378 36.173336,445.348938 37.685143,446.390137 
	C39.908569,447.874146 41.713844,448.978424 43.519119,450.082733 
	C43.506779,450.456909 43.494434,450.831055 43.482090,451.205200 
	C39.656315,451.470459 35.830540,451.735718 32.004765,452.000977 
	C26.016361,447.751282 25.462690,440.996643 25.146845,434.780457 
	C24.355328,419.202301 24.370079,403.583221 24.414217,387.463226 
	C26.116718,387.549927 27.598316,387.968658 28.779432,388.809509 
	C29.985342,389.667969 30.896181,390.940948 31.936203,392.032440 
	C31.978456,397.036011 32.020710,402.039581 31.777744,407.753326 
	C31.943995,410.323517 32.395466,412.183533 32.846939,414.043549 
z"/>
<path fill="#0F3BD7" opacity="1.000000" stroke="none" 
	d="
M31.966082,391.567139 
	C30.896181,390.940948 29.985342,389.667969 28.779432,388.809509 
	C27.598316,387.968658 26.116718,387.549927 24.430136,386.999512 
	C25.381105,382.667603 25.486618,378.540070 22.371641,374.655426 
	C21.797003,373.938782 22.692268,372.043427 22.962889,370.367828 
	C23.666191,367.067200 24.613684,364.118073 24.888569,361.107544 
	C25.220387,357.473541 24.718298,353.759460 25.102903,350.135864 
	C25.291250,348.361298 26.458029,346.549286 27.600391,345.079407 
	C28.137819,344.387909 29.852938,343.997253 30.682880,344.334717 
	C31.395214,344.624359 31.960833,346.136719 31.981951,347.121399 
	C32.099766,352.614105 32.034420,358.110840 32.027390,363.606171 
	C32.019398,369.852081 32.700684,370.559448 39.622993,371.364014 
	C40.710945,373.466461 41.348087,375.207184 41.985237,376.947876 
	C41.549294,376.977203 41.113350,377.006531 39.971855,377.024658 
	C38.509502,377.015503 37.752712,377.017517 36.995918,377.019531 
	C36.558567,377.020752 36.121220,377.021973 34.996407,377.015869 
	C33.562645,377.683350 32.816345,378.358215 32.070045,379.033051 
	C32.045353,383.056000 32.020657,387.078918 31.966082,391.567139 
z"/>
<path fill="#0F3BD7" opacity="1.000000" stroke="none" 
	d="
M32.162472,452.248352 
	C35.830540,451.735718 39.656315,451.470459 43.482090,451.205200 
	C43.494434,450.831055 43.506779,450.456909 43.519119,450.082733 
	C41.713844,448.978424 39.908569,447.874146 38.024609,446.422791 
	C43.319588,446.523102 48.693249,446.970520 54.084682,447.419373 
	C54.578716,452.143402 52.091793,453.980927 47.707893,453.992096 
	C43.447006,454.002930 39.186138,454.020081 34.478855,454.045776 
	C33.461689,453.536560 32.890934,453.016113 32.162472,452.248352 
z"/>
<path fill="#243EA5" opacity="1.000000" stroke="none" 
	d="
M13.217852,370.839325 
	C13.113633,370.606812 13.312009,370.374451 13.818951,370.151306 
	C13.911557,370.378052 13.709201,370.604370 13.217852,370.839325 
z"/>
<path fill="#123CC5" opacity="1.000000" stroke="none" 
	d="
M42.436302,376.968445 
	C41.348087,375.207184 40.710945,373.466461 40.034302,371.372314 
	C44.731030,371.018890 49.467262,371.018890 54.203491,371.018890 
	C54.538437,371.520905 54.873383,372.022888 55.208328,372.524902 
	C53.557514,373.938477 52.112549,375.959351 50.202087,376.606934 
	C47.976398,377.361359 45.343536,376.914520 42.436302,376.968445 
z"/>
<path fill="#123CC5" opacity="1.000000" stroke="none" 
	d="
M32.387390,379.023285 
	C32.816345,378.358215 33.562645,377.683350 34.668419,377.020264 
	C34.754192,377.510162 34.480492,377.988373 34.090904,378.716919 
	C33.551590,378.982666 33.128162,378.998077 32.387390,379.023285 
z"/>
<path fill="#123CC5" opacity="1.000000" stroke="none" 
	d="
M37.180809,377.264648 
	C37.752712,377.017517 38.509502,377.015503 39.644363,377.036469 
	C39.136856,377.209595 38.251278,377.359711 37.180809,377.264648 
z"/>
<path fill="#0F3BD7" opacity="1.000000" stroke="none" 
	d="
M33.035759,441.759125 
	C32.585392,441.845917 32.146252,441.675537 31.707104,441.505127 
	C31.976980,441.345551 32.246864,441.185944 32.771778,441.006897 
	C33.033531,441.158936 33.040260,441.330444 33.035759,441.759125 
z"/>
<path fill="#0F3BD7" opacity="1.000000" stroke="none" 
	d="
M33.897575,443.788879 
	C33.726696,443.815033 33.467388,443.604248 33.126297,443.151398 
	C33.299393,443.123505 33.554272,443.337708 33.897575,443.788879 
z"/>
<path fill="#2A46B1" opacity="1.000000" stroke="none" 
	d="
M81.340103,484.212402 
	C79.981407,484.390747 78.236420,484.464264 76.255890,484.274811 
	C77.664833,484.043701 79.309326,484.075623 81.340103,484.212402 
z"/>
<path fill="#0F3BD7" opacity="1.000000" stroke="none" 
	d="
M32.894585,413.638916 
	C32.395466,412.183533 31.943995,410.323517 31.781712,408.218353 
	C32.361343,409.726898 32.651787,411.480591 32.894585,413.638916 
z"/>
<path fill="#304AAA" opacity="1.000000" stroke="none" 
	d="
M538.910034,408.620117 
	C536.162109,407.760925 536.417053,406.062469 538.518188,404.057678 
	C538.884949,405.375122 538.916870,406.786407 538.910034,408.620117 
z"/>
<path fill="#304AAA" opacity="1.000000" stroke="none" 
	d="
M538.919861,396.747986 
	C538.750977,396.817444 538.586609,396.671295 538.467590,396.494507 
	C538.439758,396.453217 538.566162,396.308105 538.773804,396.138336 
	C538.925903,396.065918 538.940857,396.521179 538.919861,396.747986 
z"/>
<path fill="#304AAA" opacity="1.000000" stroke="none" 
	d="
M538.901245,412.757050 
	C538.784912,412.738403 538.689941,412.464478 538.736450,412.090881 
	C538.892761,412.161407 538.907593,412.331573 538.901245,412.757050 
z"/>
<path fill="#F0F5F9" opacity="1.000000" stroke="none" 
	d="
M714.233521,401.801514 
	C715.674316,396.605988 716.502441,391.375031 719.038635,387.175659 
	C721.596924,382.939636 726.160217,380.878784 731.644958,382.551239 
	C737.016052,384.188995 740.533264,387.533600 742.222534,392.838074 
	C742.472473,393.622894 742.535950,394.469299 742.663452,395.290680 
	C743.719910,402.096558 743.553101,402.367798 736.633362,402.392303 
	C729.212463,402.418579 721.791077,402.283295 714.233521,401.801514 
z"/>
<path fill="#243EA5" opacity="1.000000" stroke="none" 
	d="
M311.165680,405.017853 
	C311.112701,405.453339 311.059692,405.888794 310.745605,406.651672 
	C310.484558,406.979095 310.002441,407.001221 310.002441,407.001221 
	C308.581940,407.312927 307.161469,407.624634 305.368469,407.705933 
	C304.986023,407.129974 304.976105,406.784393 305.398376,406.324280 
	C307.863342,406.376251 309.607239,406.221436 309.093475,403.406860 
	C308.349976,399.333893 308.177460,395.057434 306.788788,391.219757 
	C302.378937,379.032806 293.084167,373.899292 281.923309,378.097809 
	C277.953705,379.591034 274.277435,383.258423 271.736786,386.835114 
	C267.742096,392.458862 265.628784,399.052948 265.787659,406.213776 
	C268.381165,406.342621 270.190765,406.432556 272.005219,406.769836 
	C272.003571,407.347260 272.000854,407.677277 272.001862,408.007324 
	C270.579956,408.325562 269.158081,408.643799 267.369324,408.989868 
	C266.689026,408.899200 266.421753,408.714172 265.985901,408.026031 
	C265.582397,407.303986 265.320190,407.127106 264.984650,407.058868 
	C264.984650,407.058868 264.971497,407.028656 264.866608,406.797974 
	C264.569397,406.289093 264.309082,406.109253 263.980774,406.027740 
	C263.997162,402.990814 264.013519,399.953918 264.292816,396.271973 
	C265.019592,394.416443 265.483459,393.205963 265.947327,391.995453 
	C265.979126,391.554688 266.010895,391.113922 266.063507,390.342285 
	C272.120667,375.364288 283.382416,373.983917 294.489838,375.208344 
	C301.586456,375.990601 305.623322,381.709442 308.732056,387.736542 
	C309.635437,389.487976 310.184662,391.422119 310.949982,393.634399 
	C311.027252,396.693878 311.050812,399.391388 311.073334,402.874268 
	C311.103424,404.112366 311.134552,404.565125 311.165680,405.017853 
z"/>
<path fill="#1141DA" opacity="1.000000" stroke="none" 
	d="
M265.626648,392.042450 
	C265.483459,393.205963 265.019592,394.416443 264.289978,395.817566 
	C264.451447,394.701904 264.878693,393.395691 265.626648,392.042450 
z"/>
<path fill="#123CC5" opacity="1.000000" stroke="none" 
	d="
M264.078522,406.246521 
	C264.309082,406.109253 264.569397,406.289093 264.851593,406.791199 
	C264.621155,406.922638 264.366058,406.739380 264.078522,406.246521 
z"/>
<path fill="#123CC5" opacity="1.000000" stroke="none" 
	d="
M265.085815,407.273987 
	C265.320190,407.127106 265.582397,407.303986 265.858276,407.816223 
	C265.632965,407.939819 265.380219,407.755249 265.085815,407.273987 
z"/>
<path fill="#123CC5" opacity="1.000000" stroke="none" 
	d="
M272.470215,408.018860 
	C272.000854,407.677277 272.003571,407.347260 272.467102,406.688354 
	C283.604858,406.385956 294.285522,406.412415 304.966187,406.438843 
	C304.976105,406.784393 304.986023,407.129974 305.001892,407.734650 
	C294.318115,408.006012 283.628326,408.018219 272.470215,408.018860 
z"/>
<path fill="#1141DA" opacity="1.000000" stroke="none" 
	d="
M310.106018,407.223389 
	C310.002441,407.001221 310.484558,406.979095 310.725464,406.980164 
	C310.975250,407.152405 310.984161,407.323639 310.994507,407.752197 
	C310.672607,407.906860 310.410492,407.718872 310.106018,407.223389 
z"/>
<path fill="#1141DA" opacity="1.000000" stroke="none" 
	d="
M311.442749,404.968811 
	C311.134552,404.565125 311.103424,404.112366 311.116333,403.321259 
	C311.637421,403.307526 312.114471,403.632172 312.591553,403.956787 
	C312.300964,404.277771 312.010406,404.598785 311.442749,404.968811 
z"/>
<path fill="#2A42A1" opacity="1.000000" stroke="none" 
	d="
M442.138428,397.033691 
	C443.635437,392.960632 444.435577,388.885712 446.546783,385.672119 
	C450.601166,379.500641 457.006592,378.864197 463.637238,380.433533 
	C472.398682,382.507263 478.249634,392.346985 475.745972,401.249329 
	C475.298309,402.841095 472.459625,404.710968 470.642090,404.802185 
	C462.835083,405.194061 454.989136,405.185699 447.173248,404.895325 
	C441.835693,404.696991 440.614563,402.569000 442.138428,397.033691 
M452.604858,402.760468 
	C459.524841,402.760468 466.444824,402.760468 473.969666,402.760468 
	C473.059387,395.406189 474.037933,388.329834 467.225250,384.262817 
	C462.784882,381.612000 457.832367,380.659485 453.057648,383.552032 
	C447.076935,387.175232 444.073181,394.690430 445.443909,402.760010 
	C447.428436,402.760010 449.533844,402.760010 452.604858,402.760468 
z"/>
<path fill="#123DC6" opacity="1.000000" stroke="none" 
	d="
M529.492737,383.665588 
	C530.036560,384.010345 530.362732,384.570312 530.688843,385.130249 
	C530.409912,385.257751 530.131042,385.385254 529.852112,385.512787 
	C529.659729,384.968781 529.467407,384.424774 529.492737,383.665588 
z"/>
<path fill="#243EA5" opacity="1.000000" stroke="none" 
	d="
M175.839050,387.333984 
	C181.870102,380.920074 188.955170,377.068359 197.390121,376.503937 
	C200.957794,376.265198 204.617096,377.395782 208.618286,377.955658 
	C216.657654,383.947327 219.864563,392.195465 220.922440,401.447968 
	C222.077652,411.551666 220.938385,421.455139 217.786346,431.129364 
	C213.513702,444.242889 199.775543,450.395782 186.407440,445.164703 
	C173.993744,440.307159 173.989395,440.307129 173.982010,426.741760 
	C173.976212,416.102081 173.881989,405.460693 174.061508,394.824036 
	C174.101776,392.437225 175.119049,390.066925 175.839050,387.333984 
M202.188019,444.057770 
	C207.761566,442.671356 211.613922,439.201965 213.693268,433.957520 
	C215.212585,430.125641 216.802475,426.198944 217.451965,422.168030 
	C219.383972,410.177429 219.277649,398.242615 213.241669,387.231476 
	C208.802094,379.132660 202.946213,376.814575 194.029892,378.907745 
	C185.000092,381.027527 176.249573,389.438690 176.127029,396.704681 
	C175.911133,409.507050 176.012909,422.315491 176.083450,435.120819 
	C176.090073,436.319122 176.507812,438.278076 177.267700,438.591461 
	C184.983139,441.773682 192.295074,446.936157 202.188019,444.057770 
z"/>
<path fill="#F9FBFD" opacity="1.000000" stroke="none" 
	d="
M305.398376,406.324280 
	C294.285522,406.412415 283.604858,406.385956 272.462280,406.440979 
	C270.190765,406.432556 268.381165,406.342621 265.787659,406.213776 
	C265.628784,399.052948 267.742096,392.458862 271.736786,386.835114 
	C274.277435,383.258423 277.953705,379.591034 281.923309,378.097809 
	C293.084167,373.899292 302.378937,379.032806 306.788788,391.219757 
	C308.177460,395.057434 308.349976,399.333893 309.093475,403.406860 
	C309.607239,406.221436 307.863342,406.376251 305.398376,406.324280 
z"/>
<path fill="#F0F5F9" opacity="1.000000" stroke="none" 
	d="
M452.122070,402.760254 
	C449.533844,402.760010 447.428436,402.760010 445.443909,402.760010 
	C444.073181,394.690430 447.076935,387.175232 453.057648,383.552032 
	C457.832367,380.659485 462.784882,381.612000 467.225250,384.262817 
	C474.037933,388.329834 473.059387,395.406189 473.969666,402.760468 
	C466.444824,402.760468 459.524841,402.760468 452.122070,402.760254 
z"/>
<path fill="#F9FBFD" opacity="1.000000" stroke="none" 
	d="
M201.789490,444.147644 
	C192.295074,446.936157 184.983139,441.773682 177.267700,438.591461 
	C176.507812,438.278076 176.090073,436.319122 176.083450,435.120819 
	C176.012909,422.315491 175.911133,409.507050 176.127029,396.704681 
	C176.249573,389.438690 185.000092,381.027527 194.029892,378.907745 
	C202.946213,376.814575 208.802094,379.132660 213.241669,387.231476 
	C219.277649,398.242615 219.383972,410.177429 217.451965,422.168030 
	C216.802475,426.198944 215.212585,430.125641 213.693268,433.957520 
	C211.613922,439.201965 207.761566,442.671356 201.789490,444.147644 
z"/>
</svg>